<?xml version="1.0" encoding="UTF-8"?>
<svg width="56px" height="56px" viewBox="0 0 56 56" version="1.1" xmlns="http://www.w3.org/2000/svg" xmlns:xlink="http://www.w3.org/1999/xlink">
    <!-- Generator: Sketch 55.2 (78181) - https://sketchapp.com -->
    <title>图标/特殊能力/广告支持更多样式@1x</title>
    <desc>Created with Sketch.</desc>
    <g id="图标/特殊能力/广告支持更多样式" stroke="none" stroke-width="1" fill="none" fill-rule="evenodd">
        <path d="M11,10 L25,10 C26.1045695,10 27,10.8954305 27,12 L27,26 C27,27.1045695 26.1045695,28 25,28 L11,28 C9.8954305,28 9,27.1045695 9,26 L9,12 C9,10.8954305 9.8954305,10 11,10 Z M13,14 L13,24 L23,24 L23,14 L13,14 Z M30.2819426,12 L45.7180574,12 C46.1638168,12 46.3254599,12.0464128 46.4884229,12.1335664 C46.6513858,12.2207199 46.7792801,12.3486142 46.8664336,12.5115771 C46.9535872,12.6745401 47,12.8361832 47,13.2819426 L47,14.7180574 C47,15.1638168 46.9535872,15.3254599 46.8664336,15.4884229 C46.7792801,15.6513858 46.6513858,15.7792801 46.4884229,15.8664336 C46.3254599,15.9535872 46.1638168,16 45.7180574,16 L30.2819426,16 C29.8361832,16 29.6745401,15.9535872 29.5115771,15.8664336 C29.3486142,15.7792801 29.2207199,15.6513858 29.1335664,15.4884229 C29.0464128,15.3254599 29,15.1638168 29,14.7180574 L29,13.2819426 C29,12.8361832 29.0464128,12.6745401 29.1335664,12.5115771 C29.2207199,12.3486142 29.3486142,12.2207199 29.5115771,12.1335664 C29.6745401,12.0464128 29.8361832,12 30.2819426,12 Z M10.2819426,32 L45.7180574,32 C46.1638168,32 46.3254599,32.0464128 46.4884229,32.1335664 C46.6513858,32.2207199 46.7792801,32.3486142 46.8664336,32.5115771 C46.9535872,32.6745401 47,32.8361832 47,33.2819426 L47,34.7180574 C47,35.1638168 46.9535872,35.3254599 46.8664336,35.4884229 C46.7792801,35.6513858 46.6513858,35.7792801 46.4884229,35.8664336 C46.3254599,35.9535872 46.1638168,36 45.7180574,36 L10.2819426,36 C9.83618323,36 9.67454011,35.9535872 9.51157715,35.8664336 C9.34861419,35.7792801 9.2207199,35.6513858 9.13356635,35.4884229 C9.04641281,35.3254599 9,35.1638168 9,34.7180574 L9,33.2819426 C9,32.8361832 9.04641281,32.6745401 9.13356635,32.5115771 C9.2207199,32.3486142 9.34861419,32.2207199 9.51157715,32.1335664 C9.67454011,32.0464128 9.83618323,32 10.2819426,32 Z M30.2819426,22 L45.7180574,22 C46.1638168,22 46.3254599,22.0464128 46.4884229,22.1335664 C46.6513858,22.2207199 46.7792801,22.3486142 46.8664336,22.5115771 C46.9535872,22.6745401 47,22.8361832 47,23.2819426 L47,24.7180574 C47,25.1638168 46.9535872,25.3254599 46.8664336,25.4884229 C46.7792801,25.6513858 46.6513858,25.7792801 46.4884229,25.8664336 C46.3254599,25.9535872 46.1638168,26 45.7180574,26 L30.2819426,26 C29.8361832,26 29.6745401,25.9535872 29.5115771,25.8664336 C29.3486142,25.7792801 29.2207199,25.6513858 29.1335664,25.4884229 C29.0464128,25.3254599 29,25.1638168 29,24.7180574 L29,23.2819426 C29,22.8361832 29.0464128,22.6745401 29.1335664,22.5115771 C29.2207199,22.3486142 29.3486142,22.2207199 29.5115771,22.1335664 C29.6745401,22.0464128 29.8361832,22 30.2819426,22 Z M10.2819426,42 L45.7180574,42 C46.1638168,42 46.3254599,42.0464128 46.4884229,42.1335664 C46.6513858,42.2207199 46.7792801,42.3486142 46.8664336,42.5115771 C46.9535872,42.6745401 47,42.8361832 47,43.2819426 L47,44.7180574 C47,45.1638168 46.9535872,45.3254599 46.8664336,45.4884229 C46.7792801,45.6513858 46.6513858,45.7792801 46.4884229,45.8664336 C46.3254599,45.9535872 46.1638168,46 45.7180574,46 L10.2819426,46 C9.83618323,46 9.67454011,45.9535872 9.51157715,45.8664336 C9.34861419,45.7792801 9.2207199,45.6513858 9.13356635,45.4884229 C9.04641281,45.3254599 9,45.1638168 9,44.7180574 L9,43.2819426 C9,42.8361832 9.04641281,42.6745401 9.13356635,42.5115771 C9.2207199,42.3486142 9.34861419,42.2207199 9.51157715,42.1335664 C9.67454011,42.0464128 9.83618323,42 10.2819426,42 Z" id="形状结合" fill="#989EB4"></path>
    </g>
</svg>