<?xml version="1.0" encoding="UTF-8"?>
<svg width="56px" height="56px" viewBox="0 0 56 56" version="1.1" xmlns="http://www.w3.org/2000/svg" xmlns:xlink="http://www.w3.org/1999/xlink">
    <!-- Generator: Sketch 55.2 (78181) - https://sketchapp.com -->
    <title>icon_openinterface_normal@2x图标/开发接口/默认状态</title>
    <desc>Created with Sketch.</desc>
    <g id="组件" stroke="none" stroke-width="1" fill="none" fill-rule="evenodd">
        <g id="图标/开发接口/默认状态" fill="#989EB4">
            <g id="icon" transform="translate(2.000000, 2.000000)">
                <path d="M21,20 L28,20 C28.5522847,20 29,20.4477153 29,21 L29,23 C29,23.5522847 28.5522847,24 28,24 L21,24 L21,28 L28,28 C28.5522847,28 29,28.4477153 29,29 L29,31 C29,31.5522847 28.5522847,32 28,32 L21,32 L21,35 C21,36.1045695 20.1045695,37 19,37 L12.25,37 C6.03679656,37 1,32.0751322 1,26 C1,19.9248678 6.03679656,15 12.25,15 L19,15 C20.1045695,15 21,15.8954305 21,17 L21,20 Z M17,33 L17,19 L11.75,19 C8.02207794,19 5,22.1340068 5,26 C5,29.8659932 8.02207794,33 11.75,33 L17,33 Z M33,15 L39.75,15 C45.9632034,15 51,19.9248678 51,26 C51,32.0751322 45.9632034,37 39.75,37 L33,37 C31.8954305,37 31,36.1045695 31,35 L31,17 C31,15.8954305 31.8954305,15 33,15 Z M35,19 L35,33 L40.25,33 C43.9779221,33 47,29.8659932 47,26 C47,22.1340068 43.9779221,19 40.25,19 L35,19 Z" id="合并形状" transform="translate(26.000000, 26.000000) rotate(-45.000000) translate(-26.000000, -26.000000) "></path>
            </g>
        </g>
    </g>
</svg>