<?xml version="1.0" encoding="UTF-8"?>
<svg width="56px" height="56px" viewBox="0 0 56 56" version="1.1" xmlns="http://www.w3.org/2000/svg" xmlns:xlink="http://www.w3.org/1999/xlink">
    <!-- Generator: Sketch 55.2 (78181) - https://sketchapp.com -->
    <title>icon_canvas_normal@2x图标/画布/默认状态</title>
    <desc>Created with Sketch.</desc>
    <g id="组件" stroke="none" stroke-width="1" fill="none" fill-rule="evenodd">
        <g id="图标/画布/默认状态" fill="#989EB4">
            <g id="icon" transform="translate(8.000000, 8.000000)">
                <path d="M26.2138047,30 L22,30 L22,38.7180574 C22,39.1638168 21.9535872,39.3254599 21.8664336,39.4884229 C21.7792801,39.6513858 21.6513858,39.7792801 21.4884229,39.8664336 C21.3254599,39.9535872 21.1638168,40 20.7180574,40 L19.2819426,40 C18.8361832,40 18.6745401,39.9535872 18.5115771,39.8664336 C18.3486142,39.7792801 18.2207199,39.6513858 18.1335664,39.4884229 C18.0464128,39.3254599 18,39.1638168 18,38.7180574 L18,30 L13.9222872,30 L7.03573647,37.1103416 C6.65150523,37.5070591 6.01842116,37.5171813 5.62170363,37.13295 C5.61512219,37.1265757 5.60862865,37.1201113 5.60222488,37.1135585 L4.31549262,35.7968881 C3.93696593,35.4095543 3.93557847,34.7912755 4.31236295,34.4022468 L8.57605339,30 L1.2819426,30 C0.83618323,30 0.674540111,29.9535872 0.511577148,29.8664336 C0.348614185,29.7792801 0.220719898,29.6513858 0.133566352,29.4884229 C0.0464128056,29.3254599 2.00617683e-17,29.1638168 -3.45280103e-17,28.7180574 L3.45280103e-17,27.2819426 C-2.00617683e-17,26.8361832 0.0464128056,26.6745401 0.133566352,26.5115771 C0.220719898,26.3486142 0.348614185,26.2207199 0.511577148,26.1335664 C0.674540111,26.0464128 0.83618323,26 1.2819426,26 L3,26 L3,5 C3,3.8954305 3.8954305,3 5,3 L18,3 L18,1.2819426 C18,0.83618323 18.0464128,0.674540111 18.1335664,0.511577148 C18.2207199,0.348614185 18.3486142,0.220719898 18.5115771,0.133566352 C18.6745401,0.0464128056 18.8361832,-1.93727904e-16 19.2819426,-1.66433015e-16 L20.7180574,1.66433015e-16 C21.1638168,1.93727904e-16 21.3254599,0.0464128056 21.4884229,0.133566352 C21.6513858,0.220719898 21.7792801,0.348614185 21.8664336,0.511577148 C21.9535872,0.674540111 22,0.83618323 22,1.2819426 L22,3 L35,3 C36.1045695,3 37,3.8954305 37,5 L37,26 L38.7180574,26 C39.1638168,26 39.3254599,26.0464128 39.4884229,26.1335664 C39.6513858,26.2207199 39.7792801,26.3486142 39.8664336,26.5115771 C39.9535872,26.6745401 40,26.8361832 40,27.2819426 L40,28.7180574 C40,29.1638168 39.9535872,29.3254599 39.8664336,29.4884229 C39.7792801,29.6513858 39.6513858,29.7792801 39.4884229,29.8664336 C39.3254599,29.9535872 39.1638168,30 38.7180574,30 L31.5600347,30 L35.8237303,34.4022529 C36.2005148,34.7912817 36.1991273,35.4095605 35.8206005,35.7968942 L34.5338699,37.1135628 C34.147862,37.5085518 33.5147388,37.5158325 33.1197498,37.1298245 C33.113197,37.1234208 33.1067326,37.1169272 33.1003583,37.1103458 L26.2138047,30 Z M20.7180574,26 L33,26 L33,7 L20.7180574,7 L19.2819426,7 L7,7 L7,26 L19.2819426,26 L20.7180574,26 Z" id="合并形状"></path>
            </g>
        </g>
    </g>
</svg>