<?xml version="1.0" encoding="UTF-8"?>
<svg width="56px" height="56px" viewBox="0 0 56 56" version="1.1" xmlns="http://www.w3.org/2000/svg" xmlns:xlink="http://www.w3.org/1999/xlink">
    <!-- Generator: Sketch 55.2 (78181) - https://sketchapp.com -->
    <title>icon_basiccontent_normal@2x图标/基础内容/默认状态</title>
    <desc>Created with Sketch.</desc>
    <g id="组件" stroke="none" stroke-width="1" fill="none" fill-rule="evenodd">
        <g id="图标/基础内容/默认状态" fill="#989EB4">
            <g id="icon" transform="translate(8.000000, 8.000000)">
                <path d="M26.9581452,28.0418548 L36,28.0418548 L36,4.04185478 L4,4.04185478 L4,28.0418548 L13.0418548,28.0418548 L20,35 L26.9581452,28.0418548 Z M28,32 L21.4142136,38.5857864 C20.633165,39.366835 19.366835,39.366835 18.5857864,38.5857864 L12,32 L2,32 C0.8954305,32 1.3527075e-16,31.1045695 0,30 L0,2 C-1.3527075e-16,0.8954305 0.8954305,-1.40079486e-14 2,-1.42108547e-14 L38,-1.42108547e-14 C39.1045695,-1.44137608e-14 40,0.8954305 40,2 L40,30 C40,31.1045695 39.1045695,32 38,32 L28,32 Z M10,10.1046369 L30,10.1046369 C30.5522847,10.1046369 31,10.5523522 31,11.1046369 L31,13.1464917 C31,13.6987765 30.5522847,14.1464917 30,14.1464917 L10,14.1464917 C9.44771525,14.1464917 9,13.6987765 9,13.1464917 L9,11.1046369 C9,10.5523522 9.44771525,10.1046369 10,10.1046369 Z M10,18.1883465 L30,18.1883465 C30.5522847,18.1883465 31,18.6360617 31,19.1883465 L31,21.2302013 C31,21.782486 30.5522847,22.2302013 30,22.2302013 L10,22.2302013 C9.44771525,22.2302013 9,21.782486 9,21.2302013 L9,19.1883465 C9,18.6360617 9.44771525,18.1883465 10,18.1883465 Z" id="合并形状"></path>
            </g>
        </g>
    </g>
</svg>