<?xml version="1.0" encoding="UTF-8"?>
<svg width="56px" height="56px" viewBox="0 0 56 56" version="1.1" xmlns="http://www.w3.org/2000/svg" xmlns:xlink="http://www.w3.org/1999/xlink">
    <!-- Generator: Sketch 55.2 (78181) - https://sketchapp.com -->
    <title>图标/特殊能力/设置自定义装扮@1x</title>
    <desc>Created with Sketch.</desc>
    <g id="图标/特殊能力/设置自定义装扮" stroke="none" stroke-width="1" fill="none" fill-rule="evenodd">
        <g id="icon" transform="translate(9.000000, 9.000000)" fill="#989EB4">
            <path d="M25.2,0 L25.2,4 L4,4 L4,34 L34,34 L34,17.9 L38,17.9 L38,36 C38,37.1045695 37.1045695,38 36,38 L2,38 C0.8954305,38 1.3527075e-16,37.1045695 0,36 L0,2 C-1.3527075e-16,0.8954305 0.8954305,2.02906125e-16 2,0 L25.2,0 Z M14.6779067,22.0734695 L34.4768966,2.27447962 C34.8674209,1.88395533 35.5005859,1.88395533 35.8911102,2.27447962 L37.3053237,3.68869318 C37.695848,4.07921747 37.695848,4.71238245 37.3053237,5.10290674 L17.5063339,24.9018966 C17.1158096,25.2924209 16.4826446,25.2924209 16.0921203,24.9018966 L14.6779067,23.4876831 C14.2873825,23.0971588 14.2873825,22.4639938 14.6779067,22.0734695 Z" id="Combined-Shape"></path>
        </g>
    </g>
</svg>