<?xml version="1.0" encoding="UTF-8"?>
<svg width="56px" height="56px" viewBox="0 0 56 56" version="1.1" xmlns="http://www.w3.org/2000/svg" xmlns:xlink="http://www.w3.org/1999/xlink">
    <!-- Generator: Sketch 55.2 (78181) - https://sketchapp.com -->
    <title>icon_formcomponents_normal@2x图标/表单组件/默认状态</title>
    <desc>Created with Sketch.</desc>
    <g id="组件" stroke="none" stroke-width="1" fill="none" fill-rule="evenodd">
        <g id="图标/表单组件/默认状态" fill="#989EB4">
            <path d="M10,9 L24,9 C25.1045695,9 26,9.8954305 26,11 L26,25 C26,26.1045695 25.1045695,27 24,27 L10,27 C8.8954305,27 8,26.1045695 8,25 L8,11 C8,9.8954305 8.8954305,9 10,9 Z M12,13 L12,23 L22,23 L22,13 L12,13 Z M10,29 L24,29 C25.1045695,29 26,29.8954305 26,31 L26,45 C26,46.1045695 25.1045695,47 24,47 L10,47 C8.8954305,47 8,46.1045695 8,45 L8,31 C8,29.8954305 8.8954305,29 10,29 Z M12,33 L12,43 L22,43 L22,33 L12,33 Z M29.2819426,11 L46.7180574,11 C47.1638168,11 47.3254599,11.0464128 47.4884229,11.1335664 C47.6513858,11.2207199 47.7792801,11.3486142 47.8664336,11.5115771 C47.9535872,11.6745401 48,11.8361832 48,12.2819426 L48,13.7180574 C48,14.1638168 47.9535872,14.3254599 47.8664336,14.4884229 C47.7792801,14.6513858 47.6513858,14.7792801 47.4884229,14.8664336 C47.3254599,14.9535872 47.1638168,15 46.7180574,15 L29.2819426,15 C28.8361832,15 28.6745401,14.9535872 28.5115771,14.8664336 C28.3486142,14.7792801 28.2207199,14.6513858 28.1335664,14.4884229 C28.0464128,14.3254599 28,14.1638168 28,13.7180574 L28,12.2819426 C28,11.8361832 28.0464128,11.6745401 28.1335664,11.5115771 C28.2207199,11.3486142 28.3486142,11.2207199 28.5115771,11.1335664 C28.6745401,11.0464128 28.8361832,11 29.2819426,11 Z M29.2819426,31 L46.7180574,31 C47.1638168,31 47.3254599,31.0464128 47.4884229,31.1335664 C47.6513858,31.2207199 47.7792801,31.3486142 47.8664336,31.5115771 C47.9535872,31.6745401 48,31.8361832 48,32.2819426 L48,33.7180574 C48,34.1638168 47.9535872,34.3254599 47.8664336,34.4884229 C47.7792801,34.6513858 47.6513858,34.7792801 47.4884229,34.8664336 C47.3254599,34.9535872 47.1638168,35 46.7180574,35 L29.2819426,35 C28.8361832,35 28.6745401,34.9535872 28.5115771,34.8664336 C28.3486142,34.7792801 28.2207199,34.6513858 28.1335664,34.4884229 C28.0464128,34.3254599 28,34.1638168 28,33.7180574 L28,32.2819426 C28,31.8361832 28.0464128,31.6745401 28.1335664,31.5115771 C28.2207199,31.3486142 28.3486142,31.2207199 28.5115771,31.1335664 C28.6745401,31.0464128 28.8361832,31 29.2819426,31 Z M29.2819426,21 L46.7180574,21 C47.1638168,21 47.3254599,21.0464128 47.4884229,21.1335664 C47.6513858,21.2207199 47.7792801,21.3486142 47.8664336,21.5115771 C47.9535872,21.6745401 48,21.8361832 48,22.2819426 L48,23.7180574 C48,24.1638168 47.9535872,24.3254599 47.8664336,24.4884229 C47.7792801,24.6513858 47.6513858,24.7792801 47.4884229,24.8664336 C47.3254599,24.9535872 47.1638168,25 46.7180574,25 L29.2819426,25 C28.8361832,25 28.6745401,24.9535872 28.5115771,24.8664336 C28.3486142,24.7792801 28.2207199,24.6513858 28.1335664,24.4884229 C28.0464128,24.3254599 28,24.1638168 28,23.7180574 L28,22.2819426 C28,21.8361832 28.0464128,21.6745401 28.1335664,21.5115771 C28.2207199,21.3486142 28.3486142,21.2207199 28.5115771,21.1335664 C28.6745401,21.0464128 28.8361832,21 29.2819426,21 Z M29.2819426,41 L46.7180574,41 C47.1638168,41 47.3254599,41.0464128 47.4884229,41.1335664 C47.6513858,41.2207199 47.7792801,41.3486142 47.8664336,41.5115771 C47.9535872,41.6745401 48,41.8361832 48,42.2819426 L48,43.7180574 C48,44.1638168 47.9535872,44.3254599 47.8664336,44.4884229 C47.7792801,44.6513858 47.6513858,44.7792801 47.4884229,44.8664336 C47.3254599,44.9535872 47.1638168,45 46.7180574,45 L29.2819426,45 C28.8361832,45 28.6745401,44.9535872 28.5115771,44.8664336 C28.3486142,44.7792801 28.2207199,44.6513858 28.1335664,44.4884229 C28.0464128,44.3254599 28,44.1638168 28,43.7180574 L28,42.2819426 C28,41.8361832 28.0464128,41.6745401 28.1335664,41.5115771 C28.2207199,41.3486142 28.3486142,41.2207199 28.5115771,41.1335664 C28.6745401,41.0464128 28.8361832,41 29.2819426,41 Z" id="形状结合"></path>
        </g>
    </g>
</svg>