<?xml version="1.0" encoding="UTF-8"?>
<svg width="56px" height="56px" viewBox="0 0 56 56" version="1.1" xmlns="http://www.w3.org/2000/svg" xmlns:xlink="http://www.w3.org/1999/xlink">
    <!-- Generator: Sketch 55.2 (78181) - https://sketchapp.com -->
    <title>图标/特殊能力/打开群资料卡@1x</title>
    <desc>Created with Sketch.</desc>
    <g id="图标/特殊能力/打开群资料卡" stroke="none" stroke-width="1" fill="none" fill-rule="evenodd">
        <g id="icon" transform="translate(6.000000, 10.000000)" stroke="#989EB4" stroke-width="4">
            <path d="M31.5327049,21.1467915 L37.5548673,23.022864 C41.1395985,24.1396083 44.0231873,28.0883923 43.9955041,31.8480296 L44,31.2374485 C43.9889243,32.7416381 42.7623752,33.9625451 41.2607114,33.9644203 L12.7697376,34 C11.267946,34.0018732 10.027832,32.785889 10,31.2912414 L10.0101216,31.8347941 C9.94029324,28.0848438 12.7911414,24.1332619 16.3688939,23.0114404 L22.5005363,21.0888345 L22.5005363,20.1583223 C19.7843597,18.0693782 17.8843855,14.2352648 17.8843855,10.103337 C17.8843855,3.93605815 21.3652775,0 26.9790365,0 C32.5927956,0 36.0736876,3.93605815 36.0736876,10.103337 C36.0736876,14.1970421 34.2087025,18.0226702 31.5327049,20.1243667 L31.5327049,21.1467915 Z" id="路径"></path>
            <path d="M21.5327049,23.1467915 L27.5548673,25.022864 C31.1395985,26.1396083 34.0231873,30.0883923 33.9955041,33.8480296 L34,33.2374485 C33.9889243,34.7416381 32.7623752,35.9625451 31.2607114,35.9644203 L2.76973759,36 C1.26794598,36.0018732 0.0278320322,34.785889 0,33.2912414 L0.0101215671,33.8347941 C-0.0597067566,30.0848438 2.79114139,26.1332619 6.36889394,25.0114404 L12.5005363,23.0888345 L12.5005363,22.1583223 C9.78435969,20.0693782 7.88438553,16.2352648 7.88438553,12.103337 C7.88438553,5.93605815 11.3652775,2 16.9790365,2 C22.5927956,2 26.0736876,5.93605815 26.0736876,12.103337 C26.0736876,16.1970421 24.2087025,20.0226702 21.5327049,22.1243667 L21.5327049,23.1467915 Z" id="路径" fill="#FFFFFF"></path>
        </g>
    </g>
</svg>