<?xml version="1.0" encoding="UTF-8"?>
<svg width="56px" height="56px" viewBox="0 0 56 56" version="1.1" xmlns="http://www.w3.org/2000/svg" xmlns:xlink="http://www.w3.org/1999/xlink">
    <!-- Generator: Sketch 55.2 (78181) - https://sketchapp.com -->
    <title>icon_location_normal@2x图标/默认/默认状态</title>
    <desc>Created with Sketch.</desc>
    <g id="组件" stroke="none" stroke-width="1" fill="none" fill-rule="evenodd">
        <g id="图标/默认/默认状态" fill="#989EB4">
            <g id="icon" transform="translate(10.000000, 7.000000)">
                <path d="M18,42 C15.8823529,42 1.42108547e-14,31 1.42108547e-14,17 C1.42108547e-14,7.61115925 8.0588745,3.55271368e-15 18,3.55271368e-15 C27.9411255,3.55271368e-15 36,7.61116147 36,17 C36,31 20.1176471,42 18,42 Z M18,37.8181818 C19.6470588,37.8181818 32,28.6181818 32,17.4181818 C32,9.907111 25.7319865,3.81818182 18,3.81818182 C10.2680135,3.81818182 4,9.90710922 4,17.4181818 C4,28.6181818 16.3529412,37.8181818 18,37.8181818 Z M18,25 C14.1340068,25 11,21.8659932 11,18 C11,14.1340068 14.1340068,11 18,11 C21.8659932,11 25,14.1340068 25,18 C25,21.8659932 21.8659932,25 18,25 Z M18,21 C19.6568542,21 21,19.6568542 21,18 C21,16.3431458 19.6568542,15 18,15 C16.3431458,15 15,16.3431458 15,18 C15,19.6568542 16.3431458,21 18,21 Z" id="合并形状"></path>
            </g>
        </g>
    </g>
</svg>