<?xml version="1.0" encoding="UTF-8"?>
<svg width="88px" height="88px" viewBox="0 0 88 88" version="1.1" xmlns="http://www.w3.org/2000/svg" xmlns:xlink="http://www.w3.org/1999/xlink">
    <!-- Generator: Sketch 56.2 (81672) - https://sketch.com -->
    <title>特殊能力LOGO</title>
    <desc>Created with Sketch.</desc>
    <g id="组件" stroke="none" stroke-width="1" fill="none" fill-rule="evenodd">
        <g id="特殊能力LOGO" fill="#878B99">
            <g id="特殊能力" transform="translate(2.000000, 13.000000)">
                <path d="M81.9522602,28.7973296 L44.9337659,68.7396532 C43.4320979,70.3599273 40.9012637,70.4560766 39.2809896,68.9544086 C39.2067116,68.8855679 39.1350748,68.8139311 39.0662341,68.7396532 L2.04773983,28.7973296 C0.760798348,27.4087417 0.623623045,25.3080897 1.7190523,23.7639299 L17.3814448,1.6856107 C18.1315274,0.628265011 19.3475171,2.01449818e-15 20.6438982,0 L63.3561018,0 C64.6524829,-7.64619844e-16 65.8684726,0.628265011 66.6185552,1.6856107 L82.2809477,23.7639299 C83.376377,25.3080897 83.2392017,27.4087417 81.9522602,28.7973296 Z M42.5942062,42.2090657 L56.8133298,27.0355219 C57.1909742,26.6325291 57.1704253,25.9996977 56.7674325,25.6220533 C56.5821031,25.4483811 56.3376331,25.3517362 56.0836469,25.3517362 L27.6453996,25.3517362 C27.0931149,25.3517362 26.6453996,25.7994515 26.6453996,26.3517362 C26.6453996,26.6057225 26.7420445,26.8501924 26.9157167,27.0355219 L41.1348403,42.2090657 C41.5124847,42.6120585 42.1453161,42.6326074 42.5483089,42.254963 C42.5641006,42.2401646 42.5794078,42.2248574 42.5942062,42.2090657 Z" id="形状结合"></path>
            </g>
        </g>
    </g>
</svg>