<?xml version="1.0" encoding="UTF-8"?>
<svg width="88px" height="88px" viewBox="0 0 88 88" version="1.1" xmlns="http://www.w3.org/2000/svg" xmlns:xlink="http://www.w3.org/1999/xlink">
    <!-- Generator: Sketch 56.2 (81672) - https://sketch.com -->
    <title>接口LOGO</title>
    <desc>Created with Sketch.</desc>
    <g id="组件" stroke="none" stroke-width="1" fill="none" fill-rule="evenodd">
        <g id="接口LOGO" fill="#878B99">
            <g id="编组-2" transform="translate(3.000000, 3.000000)">
                <path d="M6.96732026,22.2864924 L6.96732026,15.1949236 C6.96732026,12.5203674 7.24579709,11.5505086 7.76871837,10.5727309 C8.29163965,9.59495309 9.05900537,8.82758736 10.0367832,8.30466609 C11.0145609,7.78174481 11.9844196,7.50326797 14.6589759,7.50326797 L21.9738562,7.50326797 L21.9738562,3 C21.9738562,1.34314575 23.317002,-5.91288975e-15 24.9738562,-6.21724894e-15 L25.4052288,-6.21724894e-15 C27.062083,-6.52160813e-15 28.4052288,1.34314575 28.4052288,3 L28.4052288,7.50326797 L38.0522876,7.50326797 L38.0522876,3 C38.0522876,1.34314575 39.3954333,7.48448398e-16 41.0522876,0 L41.4836601,0 C43.1405144,1.39730022e-16 44.4836601,1.34314575 44.4836601,3 L44.4836601,7.50326797 L53.0588235,7.50326797 L53.0588235,3 C53.0588235,1.34314575 54.4019693,-6.35697896e-15 56.0588235,-6.21724894e-15 L56.4901961,-6.21724894e-15 C58.1470503,-6.96569734e-15 59.4901961,1.34314575 59.4901961,3 L59.4901961,7.50326797 L66.8050764,7.50326797 C69.4796326,7.50326797 70.4494914,7.78174481 71.4272691,8.30466609 C72.4050469,8.82758736 73.1724126,9.59495309 73.6953339,10.5727309 C74.2182552,11.5505086 74.496732,12.5203674 74.496732,15.1949236 L74.496732,22.2864924 L79,22.2864924 C80.6568542,22.2864924 82,23.6296381 82,25.2864924 L82,25.7178649 C82,27.3747192 80.6568542,28.7178649 79,28.7178649 L74.496732,28.7178649 L74.496732,38.3649237 L79,38.3649237 C80.6568542,38.3649237 82,39.7080695 82,41.3649237 L82,41.7962963 C82,43.4531505 80.6568542,44.7962963 79,44.7962963 L74.496732,44.7962963 L74.496732,53.3714597 L79,53.3714597 C80.6568542,53.3714597 82,54.7146054 82,56.3714597 L82,56.8028322 C82,58.4596865 80.6568542,59.8028322 79,59.8028322 L74.496732,59.8028322 L74.496732,67.3410241 C74.496732,70.0155804 74.2182552,70.9854391 73.6953339,71.9632168 C73.1724126,72.9409946 72.4050469,73.7083603 71.4272691,74.2312816 C70.4494914,74.7542029 69.4796326,75.0326797 66.8050764,75.0326797 L59.4901961,75.0326797 L59.4901961,79 C59.4901961,80.6568542 58.1470503,82 56.4901961,82 L56.0588235,82 C54.4019693,82 53.0588235,80.6568542 53.0588235,79 L53.0588235,75.0326797 L44.4836601,75.0326797 L44.4836601,79 C44.4836601,80.6568542 43.1405144,82 41.4836601,82 L41.0522876,82 C39.3954333,82 38.0522876,80.6568542 38.0522876,79 L38.0522876,75.0326797 L28.4052288,75.0326797 L28.4052288,79 C28.4052288,80.6568542 27.062083,82 25.4052288,82 L24.9738562,82 C23.317002,82 21.9738562,80.6568542 21.9738562,79 L21.9738562,75.0326797 L14.6589759,75.0326797 C11.9844196,75.0326797 11.0145609,74.7542029 10.0367832,74.2312816 C9.05900537,73.7083603 8.29163965,72.9409946 7.76871837,71.9632168 C7.24579709,70.9854391 6.96732026,70.0155804 6.96732026,67.3410241 L6.96732026,59.8028322 L3,59.8028322 C1.34314575,59.8028322 5.96855898e-13,58.4596865 5.96855898e-13,56.8028322 L5.96855898e-13,56.3714597 C5.96855898e-13,54.7146054 1.34314575,53.3714597 3,53.3714597 L6.96732026,53.3714597 L6.96732026,44.7962963 L3,44.7962963 C1.34314575,44.7962963 5.96855898e-13,43.4531505 5.96855898e-13,41.7962963 L5.96855898e-13,41.3649237 C5.96855898e-13,39.7080695 1.34314575,38.3649237 3,38.3649237 L6.96732026,38.3649237 L6.96732026,28.7178649 L3,28.7178649 C1.34314575,28.7178649 8.52651283e-14,27.3747192 8.52651283e-14,25.7178649 L8.52651283e-14,25.2864924 C8.52651283e-14,23.6296381 1.34314575,22.2864924 3,22.2864924 L6.96732026,22.2864924 Z M40.40625,57.9913225 L40.40625,58 L59,58 C59,54.9700411 56.9522318,52.4183641 54.1651624,51.6534358 C56.5054839,48.7386855 57.90625,45.0333783 57.90625,41 C57.90625,31.6111593 50.3160774,24 40.953125,24 C31.5901726,24 24,31.6111593 24,41 C24,50.2053516 31.2963972,57.7018263 40.40625,57.9913225 Z M40.953125,47.0322581 C37.6307871,47.0322581 34.9375,44.3315241 34.9375,41 C34.9375,37.6684759 37.6307871,34.9677419 40.953125,34.9677419 C44.2754629,34.9677419 46.96875,37.6684759 46.96875,41 C46.96875,44.3315241 44.2754629,47.0322581 40.953125,47.0322581 Z" id="形状结合"></path>
            </g>
        </g>
    </g>
</svg>