<?xml version="1.0" encoding="UTF-8"?>
<svg width="88px" height="88px" viewBox="0 0 88 88" version="1.1" xmlns="http://www.w3.org/2000/svg" xmlns:xlink="http://www.w3.org/1999/xlink">
    <!-- Generator: Sketch 56.2 (81672) - https://sketch.com -->
    <title>组件LOGO</title>
    <desc>Created with Sketch.</desc>
    <g id="组件" stroke="none" stroke-width="1" fill="none" fill-rule="evenodd">
        <g id="组件LOGO" fill="#878B99">
            <g id="icon" transform="translate(9.000000, 2.000000)">
                <path d="M37.2152963,1.3832701 L68.8762919,18.1993935 C70.1831138,18.8934866 71,20.2523188 71,21.7320311 L71,64.0091386 C71,65.5156149 70.153595,66.8943265 68.8102139,67.5760876 L37.1489013,83.6440907 C36.006283,84.2239654 34.6550222,84.2213464 33.5146603,83.6370469 L2.17597297,67.5797058 C0.840210179,66.8952866 -9.58615574e-15,65.5206975 0,64.0198005 L0,21.721211 C2.90501948e-15,20.2472103 0.810651465,18.8926541 2.10966794,18.1960664 L33.4486723,1.3907631 C34.6244017,0.760287112 36.0370677,0.757476876 37.2152963,1.3832701 Z M35.920402,26.984616 C35.6211309,26.8217675 35.2595387,26.8224964 34.9609266,26.9865502 L23.5184935,33.272879 C23.1987149,33.4485614 23,33.7844618 23,34.1493215 L23,49.9578104 C23,50.3294767 23.2061266,50.6704821 23.5352071,50.8432299 L34.9775603,56.8497887 C35.2673608,57.0019168 35.6132654,57.0025967 35.9036617,56.851609 L47.4613086,50.8423633 C47.792319,50.6702588 48,50.3282023 48,49.9551235 L48,34.1520462 C48,33.7857415 47.7997225,33.4487518 47.477969,33.2736695 L35.920402,26.984616 Z" id="形状结合"></path>
            </g>
        </g>
    </g>
</svg>