<?xml version="1.0" encoding="UTF-8"?>
<svg width="56px" height="56px" viewBox="0 0 56 56" version="1.1" xmlns="http://www.w3.org/2000/svg" xmlns:xlink="http://www.w3.org/1999/xlink">
    <!-- Generator: Sketch 55.2 (78181) - https://sketchapp.com -->
    <title>icon_media_normal@2x图标/媒体/默认状态</title>
    <desc>Created with Sketch.</desc>
    <g id="组件" stroke="none" stroke-width="1" fill="none" fill-rule="evenodd">
        <g id="图标/媒体/默认状态">
            <g id="icon" transform="translate(9.000000, 9.000000)">
                <path d="M2,0 L36,0 C37.1045695,-2.02906125e-16 38,0.8954305 38,2 L38,36 C38,37.1045695 37.1045695,38 36,38 L2,38 C0.8954305,38 1.3527075e-16,37.1045695 0,36 L0,2 C-1.3527075e-16,0.8954305 0.8954305,2.02906125e-16 2,0 Z M4,4 L4,34 L34.4,34 L34.4,4 L4,4 Z" id="合并形状" fill="#989EB4"></path>
                <path d="M21.3421288,12.9852897 L28.3690095,23.9608075 C28.6667972,24.4259321 28.531144,25.0443948 28.0660194,25.3421826 C27.9050623,25.4452325 27.7179459,25.5 27.5268269,25.5 L13.4730656,25.5 C12.9207808,25.5 12.4730656,25.0522847 12.4730656,24.5 C12.4730656,24.308881 12.5278331,24.1217646 12.630883,23.9608075 L19.6577637,12.9852897 C19.9555514,12.5201651 20.5740141,12.3845118 21.0391387,12.6822996 C21.1608414,12.7602176 21.2642108,12.863587 21.3421288,12.9852897 Z" id="三角形" stroke="#989EB4" stroke-width="4" transform="translate(20.500000, 19.000000) rotate(-270.000000) translate(-20.500000, -19.000000) "></path>
            </g>
        </g>
    </g>
</svg>