<?xml version="1.0" encoding="UTF-8"?>
<svg width="56px" height="56px" viewBox="0 0 56 56" version="1.1" xmlns="http://www.w3.org/2000/svg" xmlns:xlink="http://www.w3.org/1999/xlink">
    <!-- Generator: Sketch 55.2 (78181) - https://sketchapp.com -->
    <title>icon_nevigation_normal@2x图标/导航/默认状态</title>
    <desc>Created with Sketch.</desc>
    <g id="组件" stroke="none" stroke-width="1" fill="none" fill-rule="evenodd">
        <g id="图标/导航/默认状态">
            <g id="icon" transform="translate(5.000000, -4.000000)" stroke="#989EB4" stroke-width="4">
                <path d="M28.0425644,7.20585435 L44.5596445,46.3637544 C44.7742885,46.8726222 44.5357731,47.4591444 44.0269053,47.6737884 C43.7772241,47.7791057 43.4954912,47.7785841 43.2462016,47.6723431 L27.5132341,40.9673401 C27.2627621,40.8605951 26.9795936,40.8605951 26.7291216,40.9673401 L10.9961541,47.6723431 C10.4880846,47.8888698 9.90068327,47.6525276 9.68415657,47.1444581 C9.57791551,46.8951686 9.57739393,46.6134357 9.68271124,46.3637544 L26.1997913,7.20585435 C26.4144353,6.6969866 27.0009575,6.45847114 27.5098253,6.67311517 C27.7500671,6.77445089 27.9412287,6.96561248 28.0425644,7.20585435 Z" id="网络" transform="translate(27.121307, 27.173451) rotate(-315.000000) translate(-27.121307, -27.173451) "></path>
            </g>
            <rect id="矩形" fill="#989EB4" transform="translate(31.303301, 23.424621) rotate(-45.000000) translate(-31.303301, -23.424621) " x="23.8033009" y="21.4246212" width="15" height="4" rx="1"></rect>
        </g>
    </g>
</svg>