<?xml version="1.0" encoding="UTF-8"?>
<svg width="56px" height="56px" viewBox="0 0 56 56" version="1.1" xmlns="http://www.w3.org/2000/svg" xmlns:xlink="http://www.w3.org/1999/xlink">
    <!-- Generator: Sketch 55.2 (78181) - https://sketchapp.com -->
    <title>icon_network_normal@2x图标/网络/默认状态</title>
    <desc>Created with Sketch.</desc>
    <g id="组件" stroke="none" stroke-width="1" fill="none" fill-rule="evenodd">
        <g id="图标/网络/默认状态" fill="#989EB4">
            <g id="icon" transform="translate(8.000000, 9.000000)">
                <path d="M7.27272727,26 L7.27272727,20.8181818 L1.2819426,20.8181818 C0.83618323,20.8181818 0.674540111,20.771769 0.511577148,20.6846155 C0.348614185,20.5974619 0.220719898,20.4695676 0.133566352,20.3066047 C0.0464128056,20.1436417 2.00617683e-17,19.9819986 -3.45280103e-17,19.5362392 L3.45280103e-17,18.4637608 C-2.00617683e-17,18.0180014 0.0464128056,17.8563583 0.133566352,17.6933953 C0.220719898,17.5304324 0.348614185,17.4025381 0.511577148,17.3153845 C0.674540111,17.228231 0.83618323,17.1818182 1.2819426,17.1818182 L18.1818182,17.1818182 L18.1818182,12 L14.5638852,12 C13.6723665,12 13.3490802,11.9071744 13.0231543,11.7328673 C12.6972284,11.5585602 12.4414398,11.3027716 12.2671327,10.9768457 C12.0928256,10.6509198 12,10.3276335 12,9.4361148 L12,2.5638852 C12,1.67236646 12.0928256,1.34908022 12.2671327,1.0231543 C12.4414398,0.697228371 12.6972284,0.441439796 13.0231543,0.267132704 C13.3490802,0.0928256111 13.6723665,6.01853049e-17 14.5638852,-1.03584031e-16 L25.4361148,1.03584031e-16 C26.3276335,-6.01853049e-17 26.6509198,0.0928256111 26.9768457,0.267132704 C27.3027716,0.441439796 27.5585602,0.697228371 27.7328673,1.0231543 C27.9071744,1.34908022 28,1.67236646 28,2.5638852 L28,9.4361148 C28,10.3276335 27.9071744,10.6509198 27.7328673,10.9768457 C27.5585602,11.3027716 27.3027716,11.5585602 26.9768457,11.7328673 C26.6509198,11.9071744 26.3276335,12 25.4361148,12 L21.8181818,12 L21.8181818,17.1818182 L38.7180574,17.1818182 C39.1638168,17.1818182 39.3254599,17.228231 39.4884229,17.3153845 C39.6513858,17.4025381 39.7792801,17.5304324 39.8664336,17.6933953 C39.9535872,17.8563583 40,18.0180014 40,18.4637608 L40,19.5362392 C40,19.9819986 39.9535872,20.1436417 39.8664336,20.3066047 C39.7792801,20.4695676 39.6513858,20.5974619 39.4884229,20.6846155 C39.3254599,20.771769 39.1638168,20.8181818 38.7180574,20.8181818 L32.7272727,20.8181818 L32.7272727,26 L36.3452057,26 C37.2367244,26 37.5600107,26.0928256 37.8859366,26.2671327 C38.2118625,26.4414398 38.4676511,26.6972284 38.6419582,27.0231543 C38.8162653,27.3490802 38.9090909,27.6723665 38.9090909,28.5638852 L38.9090909,35.4361148 C38.9090909,36.3276335 38.8162653,36.6509198 38.6419582,36.9768457 C38.4676511,37.3027716 38.2118625,37.5585602 37.8859366,37.7328673 C37.5600107,37.9071744 37.2367244,38 36.3452057,38 L25.4729761,38 C24.5814574,38 24.2581711,37.9071744 23.9322452,37.7328673 C23.6063193,37.5585602 23.3505307,37.3027716 23.1762236,36.9768457 C23.0019165,36.6509198 22.9090909,36.3276335 22.9090909,35.4361148 L22.9090909,28.5638852 C22.9090909,27.6723665 23.0019165,27.3490802 23.1762236,27.0231543 C23.3505307,26.6972284 23.6063193,26.4414398 23.9322452,26.2671327 C24.2581711,26.0928256 24.5814574,26 25.4729761,26 L29.0909091,26 L29.0909091,20.8181818 L10.9090909,20.8181818 L10.9090909,26 L14.3452057,26 C15.2367244,26 15.5600107,26.0928256 15.8859366,26.2671327 C16.2118625,26.4414398 16.4676511,26.6972284 16.6419582,27.0231543 C16.8162653,27.3490802 16.9090909,27.6723665 16.9090909,28.5638852 L16.9090909,35.4361148 C16.9090909,36.3276335 16.8162653,36.6509198 16.6419582,36.9768457 C16.4676511,37.3027716 16.2118625,37.5585602 15.8859366,37.7328673 C15.5600107,37.9071744 15.2367244,38 14.3452057,38 L3.47297611,38 C2.58145737,38 2.25817113,37.9071744 1.93224521,37.7328673 C1.60631928,37.5585602 1.35053071,37.3027716 1.17622361,36.9768457 C1.00191652,36.6509198 0.909090909,36.3276335 0.909090909,35.4361148 L0.909090909,28.5638852 C0.909090909,27.6723665 1.00191652,27.3490802 1.17622361,27.0231543 C1.35053071,26.6972284 1.60631928,26.4414398 1.93224521,26.2671327 C2.25817113,26.0928256 2.58145737,26 3.47297611,26 L7.27272727,26 Z M4.90909091,30 L4.90909091,34 L12.9090909,34 L12.9090909,30 L4.90909091,30 Z M26.9090909,30 L26.9090909,34 L34.9090909,34 L34.9090909,30 L26.9090909,30 Z M16,4 L16,8 L24,8 L24,4 L16,4 Z" id="网路"></path>
            </g>
        </g>
    </g>
</svg>