<?xml version="1.0" encoding="UTF-8"?>
<svg width="56px" height="56px" viewBox="0 0 56 56" version="1.1" xmlns="http://www.w3.org/2000/svg" xmlns:xlink="http://www.w3.org/1999/xlink">
    <!-- Generator: Sketch 55.2 (78181) - https://sketchapp.com -->
    <title>图标/特殊能力/设置官方装扮@1x</title>
    <desc>Created with Sketch.</desc>
    <g id="图标/特殊能力/设置官方装扮" stroke="none" stroke-width="1" fill="none" fill-rule="evenodd">
        <path d="M12,8 L44,8 C45.1045695,8 46,8.8954305 46,10 L46,46.03237 C46,47.1369395 45.1045695,48.03237 44,48.03237 C43.7427018,48.03237 43.4878207,47.9827224 43.2493336,47.8861499 L28.3753332,41.8630979 C28.134605,41.7656178 27.865395,41.7656178 27.6246668,41.8630979 L12.7506664,47.8861499 C11.7268521,48.3007315 10.5608017,47.8068508 10.1462201,46.7830364 C10.0496475,46.5445493 10,46.2896682 10,46.03237 L10,10 C10,8.8954305 10.8954305,8 12,8 Z M14,12 L14,43 L28,37.3281481 L42,43 L42,12 L14,12 Z" id="形状结合" fill="#989EB4"></path>
        <path d="M20.2819426,16 L35.7180574,16 C36.1638168,16 36.3254599,16.0464128 36.4884229,16.1335664 C36.6513858,16.2207199 36.7792801,16.3486142 36.8664336,16.5115771 C36.9535872,16.6745401 37,16.8361832 37,17.2819426 L37,18.7180574 C37,19.1638168 36.9535872,19.3254599 36.8664336,19.4884229 C36.7792801,19.6513858 36.6513858,19.7792801 36.4884229,19.8664336 C36.3254599,19.9535872 36.1638168,20 35.7180574,20 L20.2819426,20 C19.8361832,20 19.6745401,19.9535872 19.5115771,19.8664336 C19.3486142,19.7792801 19.2207199,19.6513858 19.1335664,19.4884229 C19.0464128,19.3254599 19,19.1638168 19,18.7180574 L19,17.2819426 C19,16.8361832 19.0464128,16.6745401 19.1335664,16.5115771 C19.2207199,16.3486142 19.3486142,16.2207199 19.5115771,16.1335664 C19.6745401,16.0464128 19.8361832,16 20.2819426,16 Z" id="矩形" fill="#989EB4"></path>
    </g>
</svg>