<?xml version="1.0" encoding="UTF-8"?>
<svg width="56px" height="56px" viewBox="0 0 56 56" version="1.1" xmlns="http://www.w3.org/2000/svg" xmlns:xlink="http://www.w3.org/1999/xlink">
    <!-- Generator: Sketch 55.2 (78181) - https://sketchapp.com -->
    <title>icon_explore capacity_normal@2x图标/开发能力/默认状态</title>
    <desc>Created with Sketch.</desc>
    <g id="组件" stroke="none" stroke-width="1" fill="none" fill-rule="evenodd">
        <g id="图标/开发能力/默认状态">
            <g id="icon" transform="translate(8.000000, 8.000000)">
                <path d="M2,0 L38,0 C39.1045695,-2.02906125e-16 40,0.8954305 40,2 L40,38 C40,39.1045695 39.1045695,40 38,40 L2,40 C0.8954305,40 1.3527075e-16,39.1045695 0,38 L0,2 C-1.3527075e-16,0.8954305 0.8954305,2.02906125e-16 2,0 Z M4,4 L4,36 L36,36 L36,4 L4,4 Z" id="合并形状" fill="#989EB4"></path>
                <polyline id="路径-2" stroke="#989EB4" stroke-width="4" stroke-linecap="round" stroke-linejoin="round" transform="translate(20.313708, 20.313708) rotate(-315.000000) translate(-20.313708, -20.313708) " points="24.3137085 8.3137085 24.3137085 21.2451247 16.3137085 21.2451247 16.3137085 32.3137085"></polyline>
            </g>
        </g>
    </g>
</svg>