<?xml version="1.0" encoding="UTF-8"?>
<svg width="56px" height="56px" viewBox="0 0 56 56" version="1.1" xmlns="http://www.w3.org/2000/svg" xmlns:xlink="http://www.w3.org/1999/xlink">
    <!-- Generator: Sketch 55.2 (78181) - https://sketchapp.com -->
    <title>icon_page_normal@2x图标/页面/默认状态</title>
    <desc>Created with Sketch.</desc>
    <g id="组件" stroke="none" stroke-width="1" fill="none" fill-rule="evenodd">
        <g id="图标/页面/默认状态" fill="#989EB4">
            <path d="M35,7 L46,18.0526316 L46,47 C46,48.1045695 45.1045695,49 44,49 L12,49 C10.8954305,49 10,48.1045695 10,47 L10,18.0526316 L10,9 C10,7.8954305 10.8954305,7 12,7 L34.75,7 L34.75,12.75 L33,11 L15,11 C14.4477153,11 14,11.4477153 14,12 L14,20 L14,44 C14,44.5522847 14.4477153,45 15,45 L41,45 C41.5522847,45 42,44.5522847 42,44 L42,20 L35,13 L34.7531738,12.7568359 L34.7531738,6.99940491 L35,6.99940491 Z M20,21 L36,21 C36.5522847,21 37,21.4477153 37,22 L37,24 C37,24.5522847 36.5522847,25 36,25 L20,25 C19.4477153,25 19,24.5522847 19,24 L19,22 C19,21.4477153 19.4477153,21 20,21 Z M20,31 L36,31 C36.5522847,31 37,31.4477153 37,32 L37,34 C37,34.5522847 36.5522847,35 36,35 L20,35 C19.4477153,35 19,34.5522847 19,34 L19,32 C19,31.4477153 19.4477153,31 20,31 Z" id="合并形状"></path>
        </g>
    </g>
</svg>