<?xml version="1.0" encoding="UTF-8"?>
<svg width="56px" height="56px" viewBox="0 0 56 56" version="1.1" xmlns="http://www.w3.org/2000/svg" xmlns:xlink="http://www.w3.org/1999/xlink">
    <!-- Generator: Sketch 55.2 (78181) - https://sketchapp.com -->
    <title>图标/特殊能力/分享至PC@1x</title>
    <desc>Created with Sketch.</desc>
    <g id="图标/特殊能力/分享至PC" stroke="none" stroke-width="1" fill="none" fill-rule="evenodd">
        <g id="icon" transform="translate(7.000000, 9.000000)" fill="#989EB4">
            <path d="M24.2819426,26 L25.7180574,26 L38,26 L38,22 L4,22 L4,26 L16.2819426,26 L17.7180574,26 L24.2819426,26 Z M23,30 L19,30 L19,34 L23,34 L23,30 Z M27,30 L27,34 L32.7180574,34 C33.1638168,34 33.3254599,34.0464128 33.4884229,34.1335664 C33.6513858,34.2207199 33.7792801,34.3486142 33.8664336,34.5115771 C33.9535872,34.6745401 34,34.8361832 34,35.2819426 L34,36.7180574 C34,37.1638168 33.9535872,37.3254599 33.8664336,37.4884229 C33.7792801,37.6513858 33.6513858,37.7792801 33.4884229,37.8664336 C33.3254599,37.9535872 33.1638168,38 32.7180574,38 L9.2819426,38 C8.83618323,38 8.67454011,37.9535872 8.51157715,37.8664336 C8.34861419,37.7792801 8.2207199,37.6513858 8.13356635,37.4884229 C8.04641281,37.3254599 8,37.1638168 8,36.7180574 L8,35.2819426 C8,34.8361832 8.04641281,34.6745401 8.13356635,34.5115771 C8.2207199,34.3486142 8.34861419,34.2207199 8.51157715,34.1335664 C8.67454011,34.0464128 8.83618323,34 9.2819426,34 L15,34 L15,30 L2,30 C0.8954305,30 1.3527075e-16,29.1045695 0,28 L0,2 C-1.3527075e-16,0.8954305 0.8954305,2.02906125e-16 2,0 L40,0 C41.1045695,-2.02906125e-16 42,0.8954305 42,2 L42,28 C42,29.1045695 41.1045695,30 40,30 L27,30 Z M38,18 L38,4 L4,4 L4,18 L38,18 Z" id="合并形状"></path>
        </g>
    </g>
</svg>