<?xml version="1.0" encoding="UTF-8"?>
<svg width="56px" height="56px" viewBox="0 0 56 56" version="1.1" xmlns="http://www.w3.org/2000/svg" xmlns:xlink="http://www.w3.org/1999/xlink">
    <!-- Generator: Sketch 55.2 (78181) - https://sketchapp.com -->
    <title>图标/特殊能力/打开手Q说说发表页面@1x</title>
    <desc>Created with Sketch.</desc>
    <g id="图标/特殊能力/打开手Q说说发表页面" stroke="none" stroke-width="1" fill="none" fill-rule="evenodd">
        <g id="icon" transform="translate(6.000000, 8.000000)">
            <path d="M10,8 L10,2 C10,0.8954305 10.8954305,-1.40079486e-14 12,-1.42108547e-14 L42,-1.42108547e-14 C43.1045695,-1.44137608e-14 44,0.8954305 44,2 L44,26 C44,27.1045695 43.1045695,28 42,28 L36,28 L36,34 C36,35.1045695 35.1045695,36 34,36 L16.8284271,36 L10.8786797,41.9497475 C10.4881554,42.3402718 9.85499039,42.3402718 9.46446609,41.9497475 L8.05025253,40.5355339 C7.65972824,40.1450096 7.65972824,39.5118446 8.05025253,39.1213203 L11.1715729,36 L2,36 C0.8954305,36 1.3527075e-16,35.1045695 0,34 L0,10 C-1.3527075e-16,8.8954305 0.8954305,8 2,8 L10,8 Z M14,8 L34,8 C35.1045695,8 36,8.8954305 36,10 L36,24 L40,24 L40,4 L14,4 L14,8 Z M10,13 L4,13 L4,32 L15.17536,32 C15.549753,31.6764791 16.1071013,31.6764791 16.4814942,32 L32,32 L32,28 L12,28 C10.8954305,28 10,27.1045695 10,26 L10,13 Z M14,13 L14,24 L32,24 L32,13 L14,13 Z" id="形状结合" fill="#989EB4"></path>
            <rect id="矩形" fill="#FFFFFF" x="4" y="12" width="28" height="20"></rect>
            <path d="M10,24 C8.8954305,24 8,23.1045695 8,22 C8,20.8954305 8.8954305,20 10,20 C11.1045695,20 12,20.8954305 12,22 C12,23.1045695 11.1045695,24 10,24 Z M18,24 C16.8954305,24 16,23.1045695 16,22 C16,20.8954305 16.8954305,20 18,20 C19.1045695,20 20,20.8954305 20,22 C20,23.1045695 19.1045695,24 18,24 Z M26,24 C24.8954305,24 24,23.1045695 24,22 C24,20.8954305 24.8954305,20 26,20 C27.1045695,20 28,20.8954305 28,22 C28,23.1045695 27.1045695,24 26,24 Z" id="形状结合" fill="#989EB4"></path>
        </g>
    </g>
</svg>