<?xml version="1.0" encoding="UTF-8"?>
<svg width="56px" height="56px" viewBox="0 0 56 56" version="1.1" xmlns="http://www.w3.org/2000/svg" xmlns:xlink="http://www.w3.org/1999/xlink">
    <!-- Generator: Sketch 55.2 (78181) - https://sketchapp.com -->
    <title>图标/特殊能力/分享至空间</title>
    <desc>Created with Sketch.</desc>
    <g id="组件" stroke="none" stroke-width="1" fill="none" fill-rule="evenodd">
        <g id="图标/特殊能力/分享至空间">
            <g id="icon" transform="translate(5.000000, 6.000000)">
                <path d="M45.7806715,17.3905614 C46.2111733,16.9448943 45.9737255,16.1968784 45.3662332,16.0842502 L31.1538326,13.4545941 C30.9054324,13.4086324 30.6907657,13.2522451 30.5695593,13.0293381 L23.7121972,0.400439592 C23.5686479,0.135388817 23.2840319,0.00234948056 23,0 C22.7159681,0.00234948056 22.4313521,0.135388817 22.2878028,0.400439592 L15.4304407,13.0293381 C15.3092343,13.2522451 15.0945676,13.4086324 14.8461674,13.4545941 L0.633766837,16.0842502 C0.0262744761,16.1968784 -0.211173259,16.9448943 0.219328539,17.3905614 L10.557359,28.0848095 C10.7403369,28.2742364 10.8245972,28.5388466 10.7848766,28.7999327 L8.42266589,43.103864 C8.32920552,43.7186937 8.95626615,44.1894708 9.5160061,43.9245669 L22.6404697,37.6573275 C22.7543745,37.6034363 22.8771872,37.576711 23,37.5770046 C23.1228128,37.576711 23.2456255,37.6034363 23.3595303,37.6573275 L36.4839939,43.9245669 C37.0437339,44.1894708 37.6707945,43.7186937 37.5773341,43.103864 L35.1705837,28.5328261 L45.7806715,17.3905614 Z" id="Fill-1" stroke="#989EB4" stroke-width="4"></path>
                <path d="M22.9390038,26.8869327 C22.7181259,26.7970078 22.6433064,26.5398543 22.8470227,26.3735459 C24.5788586,24.9594644 29.5371911,21.2981817 31.2849539,19.7229191 C31.6257158,19.4158073 31.7155979,19.0149581 31.3012512,18.6891777 C30.5068809,18.0644366 27.7026328,17.0291175 24.456135,17.0008516 C19.8101676,16.9606221 15.2459336,18.3536686 13.2437106,19.4812789 C12.7684959,19.74895 13.0536988,20.4544131 13.5392845,20.3752687 C20.6450342,19.2179463 25.2865569,20.9601747 25.4836062,21.13963 C25.6243556,21.2679438 25.6164539,21.456339 25.4618764,21.5851788 C25.3305102,21.6946925 16.8398597,28.1591591 14.2884668,30.4404107 C13.8867135,30.7997157 13.9922756,31.5522448 14.6497238,31.6793754 C15.2621075,31.7976975 16.3547679,31.9274575 17.4529842,31.9674241 C26.546882,32.2983318 33.952033,30.0306215 37,28.6829319 C37,28.6829319 36.9070313,28.359255 36.4315697,28.4077671 C34.1248833,28.6433597 27.0900022,28.5768363 22.9390038,26.8869327 Z" id="Fill-10" fill="#989EB4"></path>
            </g>
        </g>
    </g>
</svg>