<?xml version="1.0" encoding="UTF-8"?>
<svg width="56px" height="56px" viewBox="0 0 56 56" version="1.1" xmlns="http://www.w3.org/2000/svg" xmlns:xlink="http://www.w3.org/1999/xlink">
    <!-- Generator: Sketch 55.2 (78181) - https://sketchapp.com -->
    <title>icon_datacaching_normal@2x图标/数据缓存/默认状态</title>
    <desc>Created with Sketch.</desc>
    <g id="组件" stroke="none" stroke-width="1" fill="none" fill-rule="evenodd">
        <g id="图标/数据缓存/默认状态" fill="#989EB4">
            <g id="icon" transform="translate(7.000000, 7.000000)">
                <path d="M20,0 L22,0 C22.5522847,-2.12475365e-16 23,0.44771525 23,1 L23,11.1886336 C23,11.7409184 22.5522847,12.1886336 22,12.1886336 L20,12.1886336 C19.4477153,12.1886336 19,11.7409184 19,11.1886336 L19,1 C19,0.44771525 19.4477153,1.01453063e-16 20,0 Z M20,29.8113664 L22,29.8113664 C22.5522847,29.8113664 23,30.2590816 23,30.8113664 L23,41 C23,41.5522847 22.5522847,42 22,42 L20,42 C19.4477153,42 19,41.5522847 19,41 L19,30.8113664 C19,30.2590816 19.4477153,29.8113664 20,29.8113664 Z M42.3301088,20.3301088 L42.3301088,22.3301088 C42.3301088,22.8823936 41.8823936,23.3301088 41.3301088,23.3301088 L31.1414752,23.3301088 C30.5891905,23.3301088 30.1414752,22.8823936 30.1414752,22.3301088 L30.1414752,20.3301088 C30.1414752,19.7778241 30.5891905,19.3301088 31.1414752,19.3301088 L41.3301088,19.3301088 C41.8823936,19.3301088 42.3301088,19.7778241 42.3301088,20.3301088 Z M11.8585248,20.3301088 L11.8585248,22.3301088 C11.8585248,22.8823936 11.4108095,23.3301088 10.8585248,23.3301088 L0.669891173,23.3301088 C0.117606423,23.3301088 -0.330108827,22.8823936 -0.330108827,22.3301088 L-0.330108827,20.3301088 C-0.330108827,19.7778241 0.117606423,19.3301088 0.669891173,19.3301088 L10.8585248,19.3301088 C11.4108095,19.3301088 11.8585248,19.7778241 11.8585248,20.3301088 Z M35.1421356,5.44365081 L36.5563492,6.85786438 C36.9468735,7.24838867 36.9468735,7.88155365 36.5563492,8.27207794 L29.3518973,15.4765299 C28.961373,15.8670542 28.328208,15.8670542 27.9376837,15.4765299 L26.5234701,14.0623163 C26.1329458,13.671792 26.1329458,13.038627 26.5234701,12.6481027 L33.7279221,5.44365081 C34.1184464,5.05312652 34.7516113,5.05312652 35.1421356,5.44365081 Z M14.0623163,26.5234701 L15.4765299,27.9376837 C15.8670542,28.328208 15.8670542,28.961373 15.4765299,29.3518973 L8.27207794,36.5563492 C7.88155365,36.9468735 7.24838867,36.9468735 6.85786438,36.5563492 L5.44365081,35.1421356 C5.05312652,34.7516113 5.05312652,34.1184464 5.44365081,33.7279221 L12.6481027,26.5234701 C13.038627,26.1329458 13.671792,26.1329458 14.0623163,26.5234701 Z M36.5563492,35.60898 L35.1421356,37.0231936 C34.7516113,37.4137179 34.1184464,37.4137179 33.7279221,37.0231936 L26.5234701,29.8187416 C26.1329458,29.4282174 26.1329458,28.7950524 26.5234701,28.4045281 L27.9376837,26.9903145 C28.328208,26.5997902 28.961373,26.5997902 29.3518973,26.9903145 L36.5563492,34.1947664 C36.9468735,34.5852907 36.9468735,35.2184557 36.5563492,35.60898 Z M15.0096855,14.0623163 L13.5954719,15.4765299 C13.2049476,15.8670542 12.5717826,15.8670542 12.1812584,15.4765299 L4.97680643,8.27207794 C4.58628214,7.88155365 4.58628214,7.24838867 4.97680643,6.85786438 L6.39102,5.44365081 C6.78154429,5.05312652 7.41470927,5.05312652 7.80523356,5.44365081 L15.0096855,12.6481027 C15.4002098,13.038627 15.4002098,13.671792 15.0096855,14.0623163 Z" id="合并形状"></path>
            </g>
        </g>
    </g>
</svg>