<?xml version="1.0" encoding="UTF-8"?>
<svg width="56px" height="56px" viewBox="0 0 56 56" version="1.1" xmlns="http://www.w3.org/2000/svg" xmlns:xlink="http://www.w3.org/1999/xlink">
    <!-- Generator: Sketch 55.2 (78181) - https://sketchapp.com -->
    <title>icon_container_normal@2x图标/视图容器/默认状态</title>
    <desc>Created with Sketch.</desc>
    <g id="组件" stroke="none" stroke-width="1" fill="none" fill-rule="evenodd">
        <g id="图标/视图容器/默认状态" fill="#989EB4">
            <g id="icon" transform="translate(8.000000, 9.000000)">
                <path d="M2,0 L38,0 C39.1045695,-2.02906125e-16 40,0.8954305 40,2 L40,36 C40,37.1045695 39.1045695,38 38,38 L2,38 C0.8954305,38 1.3527075e-16,37.1045695 0,36 L0,2 C-1.3527075e-16,0.8954305 0.8954305,2.02906125e-16 2,0 Z M4,4 L4,34 L36,34 L36,4 L4,4 Z M9,17 L25,17 C25.5522847,17 26,17.4477153 26,18 L26,20 C26,20.5522847 25.5522847,21 25,21 L9,21 C8.44771525,21 8,20.5522847 8,20 L8,18 C8,17.4477153 8.44771525,17 9,17 Z M9,25 L31,25 C31.5522847,25 32,25.4477153 32,26 L32,28 C32,28.5522847 31.5522847,29 31,29 L9,29 C8.44771525,29 8,28.5522847 8,28 L8,26 C8,25.4477153 8.44771525,25 9,25 Z M10,13 C8.8954305,13 8,12.1045695 8,11 C8,9.8954305 8.8954305,9 10,9 C11.1045695,9 12,9.8954305 12,11 C12,12.1045695 11.1045695,13 10,13 Z" id="合并形状"></path>
            </g>
        </g>
    </g>
</svg>