<?xml version="1.0" encoding="UTF-8"?>
<svg width="56px" height="56px" viewBox="0 0 56 56" version="1.1" xmlns="http://www.w3.org/2000/svg" xmlns:xlink="http://www.w3.org/1999/xlink">
    <!-- Generator: Sketch 55.2 (78181) - https://sketchapp.com -->
    <title>icon_worker_normal@2x图标/worker/默认状态</title>
    <desc>Created with Sketch.</desc>
    <g id="组件" stroke="none" stroke-width="1" fill="none" fill-rule="evenodd">
        <g id="图标/worker/默认状态" fill="#989EB4">
            <g id="icon" transform="translate(7.000000, 9.000000)">
                <path d="M6.63216198,28.3257361 C6.63177364,28.3504573 6.63157895,28.3752122 6.63157895,28.4 C6.63157895,28.5517328 6.63887403,28.7022323 6.65322418,28.8513248 C6.64121784,28.6774411 6.63415067,28.5021984 6.63216198,28.3257361 Z M6.80712997,30 L1,30 C0.44771525,30 6.76353751e-17,29.5522847 0,29 L0,27 C-6.76353751e-17,26.4477153 0.44771525,26 1,26 L6.90801629,26 C7.89741836,22.1041522 11.4279433,19.2222222 15.6315789,19.2222222 C19.8352146,19.2222222 23.3657395,22.1041522 24.3551416,26 L41,26 C41.5522847,26 42,26.4477153 42,27 L42,29 C42,29.5522847 41.5522847,30 41,30 L24.4560279,30 C23.6307495,34.1190991 19.9935508,37.2222222 15.6315789,37.2222222 C11.2696071,37.2222222 7.63240839,34.1190991 6.80712997,30 Z M18.2230164,11 L1,11 C0.44771525,11 6.76353751e-17,10.5522847 0,10 L0,8 C-6.76353751e-17,7.44771525 0.44771525,7 1,7 L17.9627755,7 L18.2230164,7 C19.1324748,2.9920226 22.7168252,0 27,0 C31.2831748,0 34.8675252,2.9920226 35.7769836,7 L41,7 C41.5522847,7 42,7.44771525 42,8 L42,10 C42,10.5522847 41.5522847,11 41,11 L35.7769836,11 C34.8675252,15.0079774 31.2831748,18 27,18 C22.7168252,18 19.1324748,15.0079774 18.2230164,11 Z M27,14 C29.7614237,14 32,11.7614237 32,9 C32,6.23857625 29.7614237,4 27,4 C24.2385763,4 22,6.23857625 22,9 C22,11.7614237 24.2385763,14 27,14 Z M15.6315789,33.2222222 C18.3930027,33.2222222 20.6315789,30.983646 20.6315789,28.2222222 C20.6315789,25.4607985 18.3930027,23.2222222 15.6315789,23.2222222 C12.8701552,23.2222222 10.6315789,25.4607985 10.6315789,28.2222222 C10.6315789,30.983646 12.8701552,33.2222222 15.6315789,33.2222222 Z" id="合并形状"></path>
            </g>
        </g>
    </g>
</svg>