<?xml version="1.0" encoding="UTF-8"?>
<svg width="80px" height="80px" viewBox="0 0 80 80" version="1.1" xmlns="http://www.w3.org/2000/svg" xmlns:xlink="http://www.w3.org/1999/xlink">
    <!-- Generator: Sketch 58 (84663) - https://sketch.com -->
    <title>图标/组件/大图标/广告能力</title>
    <desc>Created with Sketch.</desc>
    <g id="图标/组件/大图标/广告能力" stroke="none" stroke-width="1" fill="none" fill-rule="evenodd">
        <g id="icon" transform="translate(12.000000, 10.000000)" fill="#989EB4">
            <path d="M55.0770861,54 C55.7457252,54 55.9881898,54.0696192 56.2326343,54.2003495 C56.4770787,54.3310798 56.6689202,54.5229213 56.7996505,54.7673657 C56.9303808,55.0118102 57,55.2542748 57,55.9229139 L57,58.0770861 C57,58.7457252 56.9303808,58.9881898 56.7996505,59.2326343 C56.6689202,59.4770787 56.4770787,59.6689202 56.2326343,59.7996505 C55.9881898,59.9303808 55.7457252,60 55.0770861,60 L1.9229139,60 C1.25427485,60 1.01181017,59.9303808 0.767365722,59.7996505 C0.522921278,59.6689202 0.331079847,59.4770787 0.200349528,59.2326343 C0.0696192084,58.9881898 3.00926524e-17,58.7457252 -5.17920154e-17,58.0770861 L5.17920154e-17,55.9229139 C-3.00926524e-17,55.2542748 0.0696192084,55.0118102 0.200349528,54.7673657 C0.331079847,54.5229213 0.522921278,54.3310798 0.767365722,54.2003495 C1.01181017,54.0696192 1.25427485,54 1.9229139,54 L55.0770861,54 Z M54,0 C55.6568542,-3.04359188e-16 57,1.34314575 57,3 L57,48 C57,49.6568542 55.6568542,51 54,51 L3,51 C1.34314575,51 2.02906125e-16,49.6568542 0,48 L0,3 C-2.02906125e-16,1.34314575 1.34314575,3.04359188e-16 3,0 L54,0 Z M51,6 L6,6 L6,45 L51,45 L51,6 Z" id="合并形状"></path>
        </g>
        <path d="M28.6384161,26.981442 L22.7436793,42.981442 C22.4572876,43.7587909 22.855287,44.621123 23.6326359,44.9075147 C23.7986802,44.9686889 23.9742392,45 24.151194,45 L26.9442324,45 C27.5775099,45 28.1425637,44.6022897 28.3562547,44.0061551 L31.5,35.2360396 L31.5,35.2360396 L34.6437453,44.0061551 C34.8574363,44.6022897 35.4224901,45 36.0557676,45 L38.848806,45 C39.6772332,45 40.348806,44.3284271 40.348806,43.5 C40.348806,43.3230452 40.3174949,43.1474863 40.2563207,42.981442 L34.3615839,26.981442 C34.1443285,26.3917488 33.5825101,26 32.9540692,26 L30.0459308,26 C29.4174899,26 28.8556715,26.3917488 28.6384161,26.981442 Z M42,27.5 L42,43.5 C42,44.3284271 42.6715729,45 43.5,45 L49,45 L49,45 C51.8885246,45 54.1704918,44.1484594 56,42 C57.2393443,40.8221289 58,38.5070028 58,36 C58,32.4663866 57.2393443,30.1512605 56,29 C54.1704918,26.8515406 51.8885246,26 49,26 L43.5,26 C42.6715729,26 42,26.6715729 42,27.5 Z M48,32 L49,32 C50.2387268,32 52,32.3071257 52,36 C52,38.6928743 50.2387268,39 49,39 L48,39 L48,32 Z" id="AD" fill="#989EB4" fill-rule="nonzero"></path>
    </g>
</svg>