<?xml version="1.0" encoding="UTF-8"?>
<svg width="23px" height="27px" viewBox="0 0 23 27" version="1.1" xmlns="http://www.w3.org/2000/svg" xmlns:xlink="http://www.w3.org/1999/xlink">
    <!-- Generator: Sketch 58 (84663) - https://sketch.com -->
    <title>复制</title>
    <desc>Created with Sketch.</desc>
    <g id="基础组件" stroke="none" stroke-width="1" fill="none" fill-rule="evenodd">
        <g id="音视频能力_livepusher" transform="translate(-698.000000, -481.000000)" fill="#000000">
            <g id="复制" transform="translate(698.000000, 481.000000)">
                <g id="Group-19" transform="translate(3.360000, 0.000000)">
                    <path d="M17.219,5.507 L18.8617444,7.14916731 L19.319,6.691 L19.32,20.9938429 C19.32,21.9250817 18.5626331,22.68 17.6392741,22.68 L14.087,22.679 L14.087,20.58 L17.22,20.58 L17.219,5.507 Z M12.943,0 L12.3280778,0.615500655 L13.812,2.099 L2.1,2.1 L2.1,5.01 L0,5.01 L0,1.68615715 C0,0.75491827 0.757366896,-4.25532756e-15 1.68072595,-4.4112143e-15 L12.943,0 Z" id="Combined-Shape"></path>
                    <polygon id="Rectangle-1342-Copy" transform="translate(14.700000, 4.620000) scale(1, -1) translate(-14.700000, -4.620000) " points="19.32 0 19.3127143 3.21649928 13.3312762 9.22708008 10.08 9.24"></polygon>
                </g>
                <g id="Group-18" transform="translate(0.000000, 3.360000)">
                    <path d="M12.943,0 L12.3280778,0.615500655 L13.812,2.099 L2.1,2.1 L2.1,20.58 L17.22,20.58 L17.219,5.507 L18.8617444,7.14916731 L19.319,6.691 L19.32,20.9938429 C19.32,21.9250817 18.5626331,22.68 17.6392741,22.68 L1.68072595,22.68 C0.752486638,22.68 0,21.9253958 0,20.9938429 L0,1.68615715 C0,0.75491827 0.757366896,-4.25519536e-15 1.68072595,-4.41108933e-15 L12.943,0 Z" id="Combined-Shape"></path>
                    <path d="M11.76,0.837937503 C11.76,0.375157399 12.145295,0 12.5979375,0 L19.32,0 L19.3127143,1.53649928 L13.3312762,7.54708008 L11.76,7.56 L11.76,0.837937503 Z" id="Rectangle-1342-Copy" transform="translate(15.540000, 3.780000) scale(1, -1) translate(-15.540000, -3.780000) "></path>
                </g>
            </g>
        </g>
    </g>
</svg>