<?xml version="1.0" encoding="UTF-8"?>
<svg width="24px" height="24px" viewBox="0 0 24 24" version="1.1" xmlns="http://www.w3.org/2000/svg" xmlns:xlink="http://www.w3.org/1999/xlink">
    <!-- Generator: Sketch 55.2 (78181) - https://sketchapp.com -->
    <title>小程序LOGO</title>
    <desc>Created with Sketch.</desc>
    <defs>
        <path d="M1.22190909,8.28782532 L21.8915153,17.6128919 C21.8854197,17.623241 21.879307,17.6335845 21.8731754,17.6439218 L22.5332481,18.0980325 C22.5713004,18.1203996 22.5868808,18.1298173 22.6021617,18.1404122 C22.6174425,18.1513015 22.6309256,18.1618964 22.6447083,18.1724913 L22.8649323,18.3267065 L22.8562432,18.3390673 C24.129647,19.4120987 24.3780356,21.2694498 23.4078518,22.630016 C22.7729476,23.5211678 21.7503294,24 20.71273,24 C20.1185748,24 19.5196256,23.8428418 18.9862941,23.5167532 L18.9829982,23.5205792 L18.8367815,23.4213988 L16.9398593,22.1170446 C13.2146288,23.8649146 8.81913847,23.5143988 5.44686555,21.1946966 C1.2019738,18.2753939 -0.432373626,12.9336944 1.22190909,8.28782532 Z M2.07909181,6.44211481 C2.09435074,6.41588759 2.10972981,6.38970014 2.12522917,6.36355312 L1.39834031,5.86353103 C-0.0839017189,4.84435713 -0.445548401,2.83014222 0.59235061,1.37392724 C1.63024962,-0.0825820532 3.68117881,-0.437806687 5.16342085,0.582250132 L7.06034309,1.88689868 C10.7849743,0.138734371 15.1807643,0.489250145 18.5536364,2.80924665 C22.8155191,5.74080349 24.4455972,11.1127533 22.7585258,15.7716152 L2.07909181,6.44211481 Z M20.7717561,19.1881336 C20.1728068,19.8950512 19.4926594,20.5230954 18.7474934,21.0581397 L19.9382009,21.8774813 C20.2354283,22.0820224 20.597075,22.1608958 20.9560251,22.0985034 C21.3146755,22.036111 21.6271838,21.8409876 21.8357224,21.548744 C22.2498033,20.9677884 22.1290547,20.1705195 21.5618657,19.7317126 L20.7717561,19.1881336 Z M3.22545006,4.819047 C3.82499854,4.11124647 4.50604486,3.48202504 5.25270893,2.9458036 L4.06200146,2.12646194 C3.83129065,1.96753791 3.56192829,1.88483856 3.2847757,1.88483856 C3.2050756,1.88483856 3.12477626,1.89160754 3.04447691,1.90543982 C2.68552685,1.96783222 2.3733182,2.16295561 2.16447997,2.45549354 C1.956241,2.74773717 1.8765409,3.1026675 1.93946203,3.4552434 C2.00298241,3.80752499 2.2016334,4.11448381 2.49946008,4.31931923 L3.22545006,4.819047 Z" id="path-1"></path>
    </defs>
    <g id="组件" stroke="none" stroke-width="1" fill="none" fill-rule="evenodd">
        <g id="QQ小程序底部文本" transform="translate(0.000000, -8.000000)">
            <g id="编组-2">
                <g id="小程序LOGO" transform="translate(0.000000, 8.000000)">
                    <g id="Group-2">
                        <mask id="mask-2" fill="white">
                            <use xlink:href="#path-1"></use>
                        </mask>
                        <use id="形状结合" fill="#4D94FF" xlink:href="#path-1"></use>
                        <path d="M1.36421103,6.87182286 C-2.74439992,-0.245258782 -2.74439992,-3.63916088 1.36421103,-3.30988344 C5.47282199,-2.980606 13.8984543,0.200676874 26.641108,6.23396518 L23.8160864,17.4342188 L21.7057513,17.0473948 L1.36421103,6.87182286 Z" id="路径-5" fill="#4D94FF" mask="url(#mask-2)"></path>
                    </g>
                </g>
            </g>
        </g>
    </g>
</svg>