<?xml version="1.0" encoding="UTF-8"?>
<svg width="80px" height="80px" viewBox="0 0 80 80" version="1.1" xmlns="http://www.w3.org/2000/svg" xmlns:xlink="http://www.w3.org/1999/xlink">
    <!-- Generator: Sketch 58 (84663) - https://sketch.com -->
    <title>图标/组件/大图标/音视频能力</title>
    <desc>Created with Sketch.</desc>
    <g id="图标/组件/大图标/音视频能力" stroke="none" stroke-width="1" fill="none" fill-rule="evenodd">
        <g id="icon" transform="translate(17.000000, 12.000000)">
            <path d="M44,0 C45.6568542,-3.04359188e-16 47,1.34314575 47,3 L47,53 C47,54.6568542 45.6568542,56 44,56 L3,56 C1.34314575,56 2.02906125e-16,54.6568542 0,53 L0,3 C-1.09108455e-15,1.34314575 1.34314575,3.04359188e-16 3,0 L44,0 Z M41,6 L6,6 L6,50 L41,50 L41,6 Z" id="合并形状" fill="#989EB4"></path>
            <path d="M25.0074627,21.4122448 L33.3110168,34.1823089 C33.7626151,34.8768235 33.5656925,35.8059316 32.871178,36.2575299 C32.6278178,36.4157713 32.3437704,36.5 32.0534869,36.5 L15.4463787,36.5 C14.6179516,36.5 13.9463787,35.8284271 13.9463787,35 C13.9463787,34.7097165 14.0306074,34.4256691 14.1888488,34.1823089 L22.492403,21.4122448 C22.9440013,20.7177302 23.8731093,20.5208077 24.5676239,20.972406 C24.7433592,21.0866754 24.8931932,21.2365095 25.0074627,21.4122448 Z" id="三角形" stroke="#989EB4" stroke-width="6" transform="translate(23.750000, 28.500000) rotate(-270.000000) translate(-23.750000, -28.500000) "></path>
        </g>
        <rect id="矩形" fill="#989EB4" x="8" y="23.5" width="6" height="36" rx="1.5"></rect>
        <rect id="矩形备份" fill="#989EB4" x="67" y="31.5" width="6" height="16" rx="1.5"></rect>
    </g>
</svg>