<?xml version="1.0" encoding="UTF-8"?>
<svg width="80px" height="80px" viewBox="0 0 80 80" version="1.1" xmlns="http://www.w3.org/2000/svg" xmlns:xlink="http://www.w3.org/1999/xlink">
    <!-- Generator: Sketch 58 (84663) - https://sketch.com -->
    <title>图标/组件/大图标/消息触达</title>
    <desc>Created with Sketch.</desc>
    <g id="图标/组件/大图标/消息触达" stroke="none" stroke-width="1" fill="none" fill-rule="evenodd">
        <g id="编组" transform="translate(8.000000, 11.000000)">
            <path d="M32.5,0 C36.0898509,0 39,3.13400675 39,7 C39,8.05216454 38.7844439,9.0501105 38.3982951,9.94541568 C47.4281812,12.685583 54,21.0753262 54,31 L54,49 L10,49 L10,31 C10,20.7492029 17.0108129,12.1358689 26.4991121,9.69332472 C26.1775545,8.86519031 26,7.9549252 26,7 C26,3.13400675 28.9101491,0 32.5,0 Z" id="形状结合" stroke="#989EB4" stroke-width="6" stroke-linejoin="round"></path>
            <rect id="矩形" fill="#989EB4" x="0" y="46.5" width="64" height="6" rx="1.5"></rect>
            <path d="M23,50.5 C23,54.918278 27.0294373,58.5 32,58.5 C36.9705627,58.5 41,54.918278 41,50.5" id="路径" stroke="#989EB4" stroke-width="6"></path>
        </g>
        <path d="M41.5,42.7279221 L32.5,42.7279221 C31.6715729,42.7279221 31,43.3994949 31,44.2279221 L31,47.2279221 C31,48.0563492 31.6715729,48.7279221 32.5,48.7279221 L47.5,48.7279221 C48.3284271,48.7279221 49,48.0563492 49,47.2279221 L49,32.2279221 C49,31.3994949 48.3284271,30.7279221 47.5,30.7279221 L44.5,30.7279221 C43.6715729,30.7279221 43,31.3994949 43,32.2279221 L43,41.2279221 C43,42.0563492 42.3284271,42.7279221 41.5,42.7279221 Z" id="路径" fill="#989EB4" fill-rule="nonzero" transform="translate(40.000000, 39.727922) rotate(-315.000000) translate(-40.000000, -39.727922) "></path>
    </g>
</svg>