<?xml version="1.0" encoding="UTF-8"?>
<svg width="80px" height="80px" viewBox="0 0 80 80" version="1.1" xmlns="http://www.w3.org/2000/svg" xmlns:xlink="http://www.w3.org/1999/xlink">
    <!-- Generator: Sketch 58 (84663) - https://sketch.com -->
    <title>图标/组件/大图标/关系链扩展</title>
    <desc>Created with Sketch.</desc>
    <g id="图标/组件/大图标/关系链扩展" stroke="none" stroke-width="1" fill="none" fill-rule="evenodd">
        <g id="编组" transform="translate(11.000000, 13.000000)">
            <path d="M47.9738971,15.4582879 C47.5761322,14.8961695 47.2488011,14.4558103 46.9919038,14.1372104 C46.4089975,13.4142994 45.7729667,12.7894813 44.8403984,11.9696168 C40.4922336,8.14694175 34.9086859,6 29,6 C15.745166,6 5,16.745166 5,30 C5,43.254834 15.745166,54 29,54 C42.254834,54 53,43.254834 53,30 C53,27.4837958 52.6116903,25.0163444 51.8573287,22.6642039 C51.8475517,22.6337189 51.8370321,22.6015743 51.8257698,22.56777 C51.5638983,21.7818372 50.7144989,21.3569742 49.9285577,21.6188202 C49.8955394,21.6298206 49.8629139,21.6419669 49.8307406,21.6552369 L46.9022695,22.8630956 C46.2626001,23.1269288 45.9326538,23.8376658 46.1439672,24.4965524 C46.1439672,24.4965524 46.1439672,24.4965524 46.1439672,24.4965524 C46.7089555,26.2582165 47,28.1076119 47,30 C47,39.9411255 38.9411255,48 29,48 C19.0588745,48 11,39.9411255 11,30 C11,20.0588745 19.0588745,12 29,12 C33.436411,12 37.6155493,13.6069293 40.8787982,16.4758042 L41.2654477,16.8212231 C41.7412352,17.2544644 42.0650617,17.5857867 42.3211525,17.9033865 C42.5019079,18.1275565 42.7297067,18.4324469 43.0045489,18.818058 C43.4692289,19.4699793 44.3639705,19.6420977 45.0373406,19.2090833 L47.5607629,17.5863825 C48.2575523,17.1383049 48.4591762,16.2102075 48.0111009,15.5134166 C47.9991086,15.4947677 47.9867043,15.4763869 47.9738971,15.4582879 Z" id="路径" fill="#989EB4" fill-rule="nonzero"></path>
            <circle id="椭圆形" stroke="#989EB4" stroke-width="6" fill="#FFFFFF" cx="29" cy="9" r="9"></circle>
            <circle id="椭圆形备份" stroke="#989EB4" stroke-width="6" fill="#FFFFFF" cx="9" cy="42" r="9"></circle>
            <circle id="椭圆形备份-2" stroke="#989EB4" stroke-width="6" fill="#FFFFFF" cx="49" cy="42" r="9"></circle>
        </g>
    </g>
</svg>