<?xml version="1.0" encoding="UTF-8"?>
<svg width="80px" height="80px" viewBox="0 0 80 80" version="1.1" xmlns="http://www.w3.org/2000/svg" xmlns:xlink="http://www.w3.org/1999/xlink">
    <!-- Generator: Sketch 58 (84663) - https://sketch.com -->
    <title>图标/组件/大图标/分享强化</title>
    <desc>Created with Sketch.</desc>
    <g id="图标/组件/大图标/分享强化" stroke="none" stroke-width="1" fill="none" fill-rule="evenodd">
        <g id="icon" transform="translate(14.000000, 13.500000)" fill="#989EB4">
            <path d="M21.2,0.5 L21.2,6.5 L6,6.5 L6,46.5 L47,46.5 L47,31.836 L53,31.836 L53,49.5 C53,51.1568542 51.6568542,52.5 50,52.5 L3,52.5 C1.34314575,52.5 2.02906125e-16,51.1568542 0,49.5 L0,3.5 C-2.02906125e-16,1.84314575 1.34314575,0.5 3,0.5 L21.2,0.5 Z M50,0.5 C51.6568542,0.5 53,1.84314575 53,3.5 L52.999,21.3 L46.999,21.3 L46.999,9.402 L21.6115782,34.3113541 L17.6666667,30.4408749 L42.067,6.5 L31.8,6.5 L31.8,0.5 L50,0.5 Z" id="Combined-Shape"></path>
        </g>
    </g>
</svg>