<?xml version="1.0" encoding="UTF-8"?>
<svg width="80px" height="80px" viewBox="0 0 80 80" version="1.1" xmlns="http://www.w3.org/2000/svg" xmlns:xlink="http://www.w3.org/1999/xlink">
    <title>微信支付能力</title>
    <g id="特殊能力" stroke="none" stroke-width="1" fill="none" fill-rule="evenodd">
        <g id="画板" transform="translate(-227.000000, -256.000000)" fill="#989EB4">
            <path d="M260.097996,303.507213 C256.61791,305.594986 256.125013,302.318256 256.125013,302.318256 L251.774976,291.357376 C250.092996,286.138085 253.224918,289.008773 253.224918,289.008773 C253.224918,289.008773 255.892904,291.212447 257.951867,292.546334 C259.982083,293.88022 262.301905,292.952093 262.301905,292.952093 L290.751051,278.743794 C285.473071,271.610617 276.801816,267 266.999894,267 C250.991907,267 238,279.294695 238,294.488965 C238,303.217072 242.291904,310.988306 248.991077,316.03371 L247.773174,323.544114 C247.773174,323.544114 247.1929,325.747788 249.223116,324.732788 C250.614924,324.036958 254.15286,321.543143 256.269958,320.035299 C259.691981,321.340157 263.317012,321.978214 267.000177,321.978214 C283.008093,321.978214 296,309.683448 296,294.488965 C296,290.081617 294.898081,285.935029 292.95496,282.252327 C283.907004,288.167802 262.823833,301.883185 260.097996,303.50693 L260.097996,303.507213 Z" id="Fill-3"></path>
        </g>
    </g>
</svg>