<?xml version="1.0" encoding="UTF-8"?>
<svg width="148px" height="148px" viewBox="0 0 148 148" version="1.1" xmlns="http://www.w3.org/2000/svg" xmlns:xlink="http://www.w3.org/1999/xlink">
    <!-- Generator: Sketch 56.2 (81672) - https://sketch.com -->
    <title>编组备份</title>
    <desc>Created with Sketch.</desc>
    <g id="组件" stroke="none" stroke-width="1" fill="none" fill-rule="evenodd">
        <g id="接口_媒体_背景音乐_停止_icon">
            <g id="编组备份">
                <circle id="椭圆形" fill="#FFFFFF" cx="74" cy="74" r="74"></circle>
                <g id="接口/媒体/背景音乐/停止/icon" transform="translate(34.000000, 34.000000)">
                    <g id="icon/我的收藏/语音_72" stroke-width="1"></g>
                    <path d="M17.0083296,14.4444444 L62.9916704,14.4444444 C63.8831891,14.4444444 64.2064753,14.5372701 64.5324013,14.7115771 C64.8583272,14.8858842 65.1141158,15.1416728 65.2884229,15.4675987 C65.4627299,15.7935247 65.5555556,16.1168109 65.5555556,17.0083296 L65.5555556,62.9916704 C65.5555556,63.8831891 65.4627299,64.2064753 65.2884229,64.5324013 C65.1141158,64.8583272 64.8583272,65.1141158 64.5324013,65.2884229 C64.2064753,65.4627299 63.8831891,65.5555556 62.9916704,65.5555556 L17.0083296,65.5555556 C16.1168109,65.5555556 15.7935247,65.4627299 15.4675987,65.2884229 C15.1416728,65.1141158 14.8858842,64.8583272 14.7115771,64.5324013 C14.5372701,64.2064753 14.4444444,63.8831891 14.4444444,62.9916704 L14.4444444,17.0083296 C14.4444444,16.1168109 14.5372701,15.7935247 14.7115771,15.4675987 C14.8858842,15.1416728 15.1416728,14.8858842 15.4675987,14.7115771 C15.7935247,14.5372701 16.1168109,14.4444444 17.0083296,14.4444444 Z" id="矩形" fill="#989EB4"></path>
                </g>
            </g>
        </g>
    </g>
</svg>