<?xml version="1.0" encoding="UTF-8"?>
<svg width="148px" height="148px" viewBox="0 0 148 148" version="1.1" xmlns="http://www.w3.org/2000/svg" xmlns:xlink="http://www.w3.org/1999/xlink">
    <!-- Generator: Sketch 56.2 (81672) - https://sketch.com -->
    <title>接口_媒体_录音_icon</title>
    <desc>Created with Sketch.</desc>
    <g id="开放接口" stroke="none" stroke-width="1" fill="none" fill-rule="evenodd">
        <g id="媒体_录音2" transform="translate(-301.000000, -553.000000)">
            <g id="接口_媒体_背景音乐_播放_icon" transform="translate(301.000000, 553.000000)">
                <g id="编组">
                    <circle id="椭圆形" fill="#00CAFC" cx="74" cy="74" r="74"></circle>
                    <g id="接口/媒体/背景音乐/暂停/icon备份" transform="translate(34.000000, 34.000000)" fill="#FFFFFF">
                        <g id="icon/我的收藏/语音_72">
                            <path d="M18.1194408,14.4444444 L26.3250037,14.4444444 C27.2165224,14.4444444 27.5398087,14.5372701 27.8657346,14.7115771 C28.1916605,14.8858842 28.4474491,15.1416728 28.6217562,15.4675987 C28.7960633,15.7935247 28.8888889,16.1168109 28.8888889,17.0083296 L28.8888889,62.9916704 C28.8888889,63.8831891 28.7960633,64.2064753 28.6217562,64.5324013 C28.4474491,64.8583272 28.1916605,65.1141158 27.8657346,65.2884229 C27.5398087,65.4627299 27.2165224,65.5555556 26.3250037,65.5555556 L18.1194408,65.5555556 C17.227922,65.5555556 16.9046358,65.4627299 16.5787099,65.2884229 C16.2527839,65.1141158 15.9969954,64.8583272 15.8226883,64.5324013 C15.6483812,64.2064753 15.5555556,63.8831891 15.5555556,62.9916704 L15.5555556,17.0083296 C15.5555556,16.1168109 15.6483812,15.7935247 15.8226883,15.4675987 C15.9969954,15.1416728 16.2527839,14.8858842 16.5787099,14.7115771 C16.9046358,14.5372701 17.227922,14.4444444 18.1194408,14.4444444 Z M53.6749963,14.4444444 L61.8805592,14.4444444 C62.772078,14.4444444 63.0953642,14.5372701 63.4212901,14.7115771 C63.7472161,14.8858842 64.0030046,15.1416728 64.1773117,15.4675987 C64.3516188,15.7935247 64.4444444,16.1168109 64.4444444,17.0083296 L64.4444444,62.9916704 C64.4444444,63.8831891 64.3516188,64.2064753 64.1773117,64.5324013 C64.0030046,64.8583272 63.7472161,65.1141158 63.4212901,65.2884229 C63.0953642,65.4627299 62.772078,65.5555556 61.8805592,65.5555556 L53.6749963,65.5555556 C52.7834776,65.5555556 52.4601913,65.4627299 52.1342654,65.2884229 C51.8083395,65.1141158 51.5525509,64.8583272 51.3782438,64.5324013 C51.2039367,64.2064753 51.1111111,63.8831891 51.1111111,62.9916704 L51.1111111,17.0083296 C51.1111111,16.1168109 51.2039367,15.7935247 51.3782438,15.4675987 C51.5525509,15.1416728 51.8083395,14.8858842 52.1342654,14.7115771 C52.4601913,14.5372701 52.7834776,14.4444444 53.6749963,14.4444444 Z" id="暂停"></path>
                        </g>
                    </g>
                </g>
            </g>
        </g>
    </g>
</svg>