<?xml version="1.0" encoding="UTF-8"?>
<svg width="148px" height="148px" viewBox="0 0 148 148" version="1.1" xmlns="http://www.w3.org/2000/svg" xmlns:xlink="http://www.w3.org/1999/xlink">
    <!-- Generator: Sketch 56.2 (81672) - https://sketch.com -->
    <title>icon/我的文件首页/电脑文件@2x</title>
    <desc>Created with Sketch.</desc>
    <g id="组件" stroke="none" stroke-width="1" fill="none" fill-rule="evenodd">
        <g id="接口_媒体_录音_删除_icon_黑色">
            <g id="icon/我的文件首页/电脑文件">
                <g id="图标">
                    <circle id="Oval-Copy-7" fill="#F5F6FA" cx="74" cy="74" r="74"></circle>
                    <g id="icon/我的文件底部操作/删除" transform="translate(24.000000, 24.000000)" fill="#03081A">
                        <g id="图标">
                            <path d="M25.63593,33.7837838 L75.7154213,33.7837838 L75.7154213,85.8378378 C75.7154213,86.9424073 74.8199908,87.8378378 73.7154213,87.8378378 L27.63593,87.8378378 C26.5313605,87.8378378 25.63593,86.9424073 25.63593,85.8378378 L25.63593,33.7837838 Z M39.1558029,46.3963964 C38.6035181,46.3963964 38.1558029,46.8441116 38.1558029,47.3963964 L38.1558029,74.0859295 C38.1558029,74.6382142 38.6035181,75.0859295 39.1558029,75.0859295 L44.3208641,75.0859295 C44.8731489,75.0859295 45.3208641,74.6382142 45.3208641,74.0859295 L45.3208641,47.3963964 C45.3208641,46.8441116 44.8731489,46.3963964 44.3208641,46.3963964 L39.1558029,46.3963964 Z M57.0419378,46.3963964 C56.489653,46.3963964 56.0419378,46.8441116 56.0419378,47.3963964 L56.0419378,74.0859295 C56.0419378,74.6382142 56.489653,75.0859295 57.0419378,75.0859295 L62.1955485,75.0859295 C62.7478332,75.0859295 63.1955485,74.6382142 63.1955485,74.0859295 L63.1955485,47.3963964 C63.1955485,46.8441116 62.7478332,46.3963964 62.1955485,46.3963964 L57.0419378,46.3963964 Z M39.9443561,21.1711712 L39.9443561,14.1621622 C39.9443561,13.0575927 40.8397866,12.1621622 41.9443561,12.1621622 L59.4069952,12.1621622 C60.5115647,12.1621622 61.4069952,13.0575927 61.4069952,14.1621622 L61.4069952,21.1711712 L79.0810811,21.1711712 C80.1856506,21.1711712 81.0810811,22.0666017 81.0810811,23.1711712 L81.0810811,26.3783784 C81.0810811,27.4829479 80.1856506,28.3783784 79.0810811,28.3783784 L22.2702703,28.3783784 C21.1657008,28.3783784 20.2702703,27.4829479 20.2702703,26.3783784 L20.2702703,23.1711712 C20.2702703,22.0666017 21.1657008,21.1711712 22.2702703,21.1711712 L39.9443561,21.1711712 Z"></path>
                        </g>
                    </g>
                </g>
            </g>
        </g>
    </g>
</svg>