<?xml version="1.0" encoding="UTF-8"?>
<svg width="148px" height="148px" viewBox="0 0 148 148" version="1.1" xmlns="http://www.w3.org/2000/svg" xmlns:xlink="http://www.w3.org/1999/xlink">
    <!-- Generator: Sketch 56.2 (81672) - https://sketch.com -->
    <title>编组</title>
    <desc>Created with Sketch.</desc>
    <g id="组件" stroke="none" stroke-width="1" fill="none" fill-rule="evenodd">
        <g id="接口_媒体_录音_icon">
            <g id="编组">
                <circle id="椭圆形" fill="#00CAFC" cx="74" cy="74" r="74"></circle>
                <g id="接口/媒体/录音/ico" transform="translate(34.000000, 34.000000)" fill="#FFFFFF">
                    <g id="icon/我的收藏/语音_72">
                        <path d="M38.5887948,7.77777778 L41.4188372,7.77777778 C49.2297215,7.77777778 55.5616943,14.1097506 55.5616943,21.9206349 L55.5616943,38.1099672 C55.5616943,45.9208515 49.2297215,52.2528243 41.4188372,52.2528243 L38.5887948,52.2528243 C30.7779105,52.2528243 24.4459377,45.9208515 24.4459377,38.1099672 L24.4459377,21.9206349 C24.4459377,14.1097506 30.7779105,7.77777778 38.5887948,7.77777778 Z M46.1158396,22.2273635 C48.2639344,22.2273635 50.0053092,20.4856289 50.0053092,18.3370904 C50.0053092,16.1885519 48.2639344,14.4468173 46.1158396,14.4468173 C43.9677449,14.4468173 42.22637,16.1885519 42.22637,18.3370904 C42.22637,20.4856289 43.9677449,22.2273635 46.1158396,22.2273635 Z M29.8910458,65.5891061 L50.1179316,65.5891061 C50.6702164,65.5891061 51.1179316,66.0368214 51.1179316,66.5891061 L51.1179316,71.2222222 C51.1179316,71.774507 50.6702164,72.2222222 50.1179316,72.2222222 L29.8910458,72.2222222 C29.338761,72.2222222 28.8910458,71.774507 28.8910458,71.2222222 L28.8910458,66.5891061 C28.8910458,66.0368214 29.338761,65.5891061 29.8910458,65.5891061 Z M60.0025582,36.6769492 L65.5555556,36.6769492 C65.5555556,50.8836119 54.1412182,62.2463862 39.9374897,62.2463862 C25.7337613,62.2463862 14.4444444,50.8836119 14.4444444,36.6769492 L19.9965853,36.6817345 C19.9965853,47.731361 28.9593716,56.6888532 40.006716,56.6888532 C51.0540603,56.6888532 60.0025582,47.7265758 60.0025582,36.6769492 Z" id="图标"></path>
                    </g>
                </g>
            </g>
        </g>
    </g>
</svg>