<?xml version="1.0" encoding="UTF-8"?>
<svg width="148px" height="148px" viewBox="0 0 148 148" version="1.1" xmlns="http://www.w3.org/2000/svg" xmlns:xlink="http://www.w3.org/1999/xlink">
    <!-- Generator: Sketch 56.2 (81672) - https://sketch.com -->
    <title>icon</title>
    <desc>Created with Sketch.</desc>
    <g id="组件" stroke="none" stroke-width="1" fill="none" fill-rule="evenodd">
        <g id="接口_开放接口_转发按钮_icon">
            <g id="icon">
                <circle id="椭圆形" fill="#00CAFC" cx="74" cy="74" r="74"></circle>
                <g id="接口/开放接口/转发按钮/icon" transform="translate(34.000000, 34.000000)">
                    <g id="icon/我的收藏/语音_72" stroke-width="1"></g>
                    <path d="M31.4141414,15.600105 L31.4141414,22.1790524 L16.6919192,22.1790524 L16.6919192,59.0211576 L62.1969697,59.0211576 L62.1969697,48.4948419 L68.8888889,48.4948419 L68.8888889,61.5929153 C68.8888889,63.8060251 67.094307,65.600105 64.8875141,65.600105 L14.0013748,65.600105 C11.7914765,65.600105 10,63.8058367 10,61.5929153 L10,19.6072947 C10,17.394185 11.7945818,15.600105 14.0013748,15.600105 L31.4141414,15.600105 Z M54.8253,36.683462 L52.6290805,36.683462 C47.6673489,36.683462 41.352382,38.2709335 37.6926144,40.1659292 C34.0328468,42.0609249 30.7467685,44.9923047 30.7467685,44.9923047 C29.0312603,46.3758163 28.2450775,45.8410458 28.9772857,43.7601894 C28.9772857,43.7601894 31.4249869,33.9907356 40.2439198,28.4254699 C42.9547277,26.7147906 45.1472686,25.5984067 48.5825114,24.742933 C50.2192497,24.3353384 52.6884518,24.0168004 54.8253,23.794984 L54.8253,15.4749868 C54.8253,14.3714169 55.5388319,14.0186262 56.4119988,14.6816765 L75.0569792,28.8399757 C75.9332888,29.5054124 75.9301462,30.5866848 75.0569792,31.2497351 L56.4119988,45.4080344 C55.5356892,46.073471 54.8253,45.7266029 54.8253,44.614724 L54.8253,36.683462 Z" id="分享" fill="#FFFFFF"></path>
                </g>
            </g>
        </g>
    </g>
</svg>